<?xml version="1.0" standalone="no"?>
<!DOCTYPE svg PUBLIC "-//W3C//DTD SVG 1.1//EN" "http://www.w3.org/Graphics/SVG/1.1/DTD/svg11.dtd" >
<svg xmlns="http://www.w3.org/2000/svg">
<metadata>Generated by IcoMoon</metadata>
<defs>
<font id="imv2" horiz-adv-x="512">
<font-face units-per-em="512" ascent="480" descent="-32" />
<missing-glyph horiz-adv-x="512" />
<glyph unicode="&#x20;" horiz-adv-x="256" d="" />
<glyph unicode="&#xe000;" glyph-name="error_c" d="M277 192.333v128h-42v-128h42zM277 106.333v43h-42v-43h42zM256 426.333c118 0 213-95 213-213s-95-213-213-213-213 95-213 213 95 213 213 213z" />
<glyph unicode="&#xe034;" glyph-name="pause" d="M160 384v0c17.066 0 32-14.933 32-32v-277.334c0-17.067-14.934-32-32-32v0c-17.066 0-32 14.933-32 32v277.334c0 17.067 14.934 32 32 32zM352 384v0c17.067 0 32-14.933 32-32v-277.334c0-17.067-14.933-32-32-32v0c-17.067 0-32 14.933-32 32v277.334c0 17.067 14.933 32 32 32z" />
<glyph unicode="&#xe037;" glyph-name="video1" d="M106.666-0c-4.266 0-6.4 0-10.666 2.134-6.4 4.267-10.666 10.666-10.666 19.2v384c0 8.534 4.266 14.933 10.666 19.2s14.933 4.267 21.334 0l298.666-192c6.4-4.267 10.666-10.667 10.666-17.066s-4.267-14.934-10.666-17.067l-298.666-192c-2.133-4.267-6.4-6.4-10.666-6.4zM128 366.933v-305.067l238.933 151.466-238.934 153.6z" />
<glyph unicode="&#xe038;" glyph-name="play_circle" d="M213 117.333l128 96-128 96v-192zM256 426.333c118 0 213-95 213-213s-95-213-213-213-213 95-213 213 95 213 213 213z" />
<glyph unicode="&#xe040;" glyph-name="forward1" d="M149.333 245.333c0 29.867 23.466 53.333 53.333 53.333h245.334l-149.333 128v-64h-96c-64 0-117.334-53.333-117.334-117.333v-53.334h64v53.334zM362.666 181.333c0-29.866-23.466-53.334-53.334-53.334h-245.333l149.333-128v64h96c64 0 117.334 53.334 117.334 117.334v53.334h-64v-53.334z" />
<glyph unicode="&#xe042;" glyph-name="replay" d="M256 362.333c94 0 171-76 171-170s-77-171-171-171-171 77-171 171h43c0-71 57-128 128-128s128 57 128 128-57 128-128 128v-86l-107 107 107 107v-86z" />
<glyph unicode="&#xe048;" glyph-name="invoice" d="M427 170.333v43h-214v-43h214zM427 85.333v43h-86v-43h86zM299 85.333v43h-214v-43h214zM85 213.333v-43h86v43h-86zM427 384.333c23 0 42-20 42-43v-256c0-23-19-43-42-43h-342c-23 0-42 20-42 43v256c0 23 19 43 42 43h342z" />
<glyph unicode="&#xe04d;" glyph-name="vol_down" d="M234.667 42.667c-4.267 0-8.534 2.134-12.8 4.267l-102.4 81.067h-76.8c-12.8 0-21.334 8.534-21.334 21.334v128c0 12.8 8.534 21.334 21.334 21.334h76.8l100.267 81.066c6.4 4.267 14.934 6.4 23.466 2.133s12.8-10.666 12.8-19.2v-298.667c0-8.534-4.267-14.933-12.8-19.2-2.133-2.134-6.4-2.134-8.534-2.134zM64 170.667h64c4.267 0 8.534-2.134 12.8-4.267l72.534-57.6v209.067l-72.534-57.6c-4.267-2.134-8.534-4.267-12.8-4.267h-64v-85.334zM330.666 117.333c-6.4 0-10.666 2.134-14.933 6.4-8.534 8.534-8.534 21.334 0 29.866 34.133 34.134 34.133 87.467 0 121.6-8.534 8.534-8.534 21.334 0 29.867s21.334 8.534 29.866 0c49.067-49.067 49.067-130.134 0-181.334-2.134-4.267-8.534-6.4-14.933-6.4z" />
<glyph unicode="&#xe04e;" glyph-name="vol_mute" d="M234.667 42.667c-4.267 0-8.534 2.134-12.8 4.267l-102.4 81.067h-76.8c-12.8 0-21.334 8.534-21.334 21.334v128c0 12.8 8.534 21.334 21.334 21.334h76.8l100.267 81.066c6.4 4.267 14.934 6.4 23.466 2.133s12.8-10.666 12.8-19.2v-298.667c0-8.534-4.267-14.933-12.8-19.2-2.133-2.134-6.4-2.134-8.534-2.134zM64 170.667h64c4.267 0 8.534-2.134 12.8-4.267l72.534-57.6v209.067l-72.534-57.6c-4.267-2.134-8.534-4.267-12.8-4.267h-64v-85.334z" />
<glyph unicode="&#xe04f;" glyph-name="vol_off" d="M234.667 42.667c-4.267 0-8.534 2.134-12.8 4.267l-102.4 81.067h-76.8c-12.8 0-21.334 8.534-21.334 21.334v128c0 12.8 8.534 21.334 21.334 21.334h76.8l100.267 81.066c6.4 4.267 14.934 6.4 23.466 2.133s12.8-10.666 12.8-19.2v-298.667c0-8.534-4.267-14.933-12.8-19.2-2.133-2.134-6.4-2.134-8.534-2.134zM64 170.667h64c4.267 0 8.534-2.134 12.8-4.267l72.534-57.6v209.067l-72.534-57.6c-4.267-2.134-8.534-4.267-12.8-4.267h-64v-85.334zM362.666 128c-6.4 0-10.666 2.134-14.933 6.4-8.534 8.534-8.534 21.334 0 29.866l128 128c8.534 8.534 21.334 8.534 29.866 0s8.533-21.333 0-29.866l-128-128c-4.267-4.267-8.534-6.4-14.933-6.4zM490.666 128c-6.4 0-10.666 2.134-14.933 6.4l-128 128c-8.534 8.534-8.534 21.334 0 29.867s21.334 8.534 29.866 0l128-128c8.533-8.534 8.533-21.334 0-29.866-4.267-4.267-8.534-6.4-14.933-6.4z" />
<glyph unicode="&#xe050;" glyph-name="vol_up" d="M234.667 42.667c-4.267 0-8.534 2.134-12.8 4.267l-102.4 81.067h-76.8c-12.8 0-21.334 8.534-21.334 21.334v128c0 12.8 8.534 21.334 21.334 21.334h76.8l100.267 81.066c6.4 4.267 14.934 6.4 23.466 2.133s12.8-10.666 12.8-19.2v-298.667c0-8.534-4.267-14.933-12.8-19.2-2.133-2.134-6.4-2.134-8.534-2.134zM64 170.667h64c4.267 0 8.534-2.134 12.8-4.267l72.534-57.6v209.067l-72.534-57.6c-4.267-2.134-8.534-4.267-12.8-4.267h-64v-85.334zM407.466 40.533c-6.4 0-10.666 2.134-14.933 6.4-8.534 8.534-8.534 21.334 0 29.866 74.666 74.666 74.666 196.267 0 270.933-8.534 8.534-8.534 21.334 0 29.867s21.334 8.534 29.866 0c91.734-91.733 91.734-241.067 0-332.8-4.267-2.134-10.666-4.267-14.933-4.267zM330.666 117.333c-6.4 0-10.666 2.134-14.933 6.4-8.534 8.534-8.534 21.334 0 29.866 34.133 34.134 34.133 87.467 0 121.6-8.534 8.534-8.534 21.334 0 29.867s21.334 8.534 29.866 0c49.067-49.067 49.067-130.134 0-181.334-2.134-4.267-8.534-6.4-14.933-6.4z" />
<glyph unicode="&#xe0ca;" glyph-name="chat_bubble" d="M64-0c-2.133 0-6.4 0-8.534 2.134-8.534 2.134-12.8 10.666-12.8 19.2v341.334c0 36.267 27.734 64 64 64h298.666c36.267 0 64-27.733 64-64v-213.334c0-36.267-27.733-64-64-64h-247.466l-78.933-78.933c-4.266-4.267-8.534-6.4-14.934-6.4zM106.666 384c-12.8 0-21.334-8.534-21.334-21.333v-290.134l49.066 49.067c4.267 4.267 8.534 6.4 14.934 6.4h256c12.8 0 21.334 8.534 21.334 21.334v213.334c0 12.8-8.534 21.334-21.334 21.334h-298.666z" />
<glyph unicode="&#xe0d8;" glyph-name="textsms" d="M363 234.333v43h-43v-43h43zM277 234.333v43h-42v-43h42zM192 234.333v43h-43v-43h43zM427 426.333c23 0 42-19 42-42v-256c0-23-19-43-42-43h-299l-85-85v384c0 23 19 42 42 42h342z" />
<glyph unicode="&#xe0d9;" glyph-name="voicemail" d="M395 149.333c41 0 74 34 74 75s-33 74-74 74-75-33-75-74 34-75 75-75zM117 149.333c41 0 75 34 75 75s-34 74-75 74-74-33-74-74 33-75 74-75zM395 341.333c65 0 117-52 117-117s-52-118-117-118h-278c-65 0-117 53-117 118s52 117 117 117 118-52 118-117c0-28-10-55-27-75h96c-17 20-27 47-27 75 0 65 53 117 118 117z" />
<glyph unicode="&#xe145;" glyph-name="add1" d="M405 192.333h-128v-128h-42v128h-128v42h128v128h42v-128h128v-42z" />
<glyph unicode="&#xe147;" glyph-name="add_circle" d="M363 192.333v42h-86v86h-42v-86h-86v-42h86v-86h42v86h86zM256 426.333c118 0 213-95 213-213s-95-213-213-213-213 95-213 213 95 213 213 213z" />
<glyph unicode="&#xe14f;" glyph-name="lujing" d="M405 42.333v342h-42v-64h-214v64h-42v-342h298zM256 426.333c-12 0-21-9-21-21s9-21 21-21 21 9 21 21-9 21-21 21zM405 426.333c23 0 43-19 43-42v-342c0-23-20-42-43-42h-298c-23 0-43 19-43 42v342c0 23 20 42 43 42h89c9 25 32 43 60 43s51-18 60-43h89z" />
<glyph unicode="&#xe153;" glyph-name="flag1" d="M307 341.333h120v-213h-150l-8 42h-120v-149h-42v363h192z" />
<glyph unicode="&#xe157;" glyph-name="link" d="M265.813 134.4l-46.293-46.293c-9.589-9.885-22.996-16.019-37.837-16.019-0.499 0-0.995 0.007-1.49 0.021l0.073-0.002c-0.439-0.014-0.956-0.021-1.474-0.021-14.756 0-28.077 6.139-37.549 16.003l-0.017 0.017c-9.88 10.042-15.98 23.829-15.98 39.040s6.1 28.998 15.987 39.048l46.286 47.139c5.658 5.608 9.161 13.382 9.161 21.974s-3.503 16.365-9.159 21.971l-0.002 0.002c-5.732 5.471-13.512 8.838-22.080 8.838s-16.349-3.367-22.093-8.85l0.012 0.012-46.293-46.934c-10.968-10.959-19.669-24.185-25.341-38.916l-0.259-0.764c-5.466-12.995-8.642-28.1-8.642-43.947s3.176-30.952 8.927-44.713l-0.284 0.767c12.313-29.038 34.962-51.687 63.222-63.707l0.778-0.293c12.901-5.615 27.926-8.905 43.713-8.96h0.020c15.402 0.042 30.061 3.175 43.405 8.81l-0.738-0.277c15.051 6.236 27.888 14.968 38.603 25.803l46.304 46.304c5.569 5.688 9.005 13.483 9.005 22.080s-3.436 16.392-9.010 22.086l0.005-0.005c-5.486 4.547-12.596 7.306-20.352 7.306-7.873 0-15.081-2.843-20.655-7.558l0.047 0.039zM188.374 135.253c5.696-5.81 13.627-9.413 22.4-9.413s16.703 3.602 22.395 9.408l90.458 90.459c5.733 5.732 9.279 13.653 9.279 22.4 0 17.495-14.183 31.678-31.678 31.678-8.748 0-16.668-3.545-22.4-9.279v0l-90.454-90.454c-5.524-5.476-9.049-12.964-9.385-21.271l-0.002-0.062c-0.010-0.295-0.016-0.64-0.016-0.988 0-8.796 3.596-16.75 9.399-22.476l0.004-0.003zM440.32 321.92c-12.488 28.923-35.077 51.512-63.219 63.698l-0.781 0.302c-12.98 5.435-28.047 8.703-43.846 8.958l-0.101 0.001c-0.19 0.001-0.413 0.002-0.637 0.002-15.673 0-30.632-3.056-44.313-8.605l0.791 0.284c-15.177-6.092-28.108-14.846-38.806-25.792l-0.020-0.021-47.147-45.44c-5.658-5.607-9.161-13.381-9.161-21.973s3.503-16.365 9.159-21.971l0.002-0.002c5.698-5.458 13.443-8.818 21.974-8.818s16.275 3.36 21.985 8.829l-0.012-0.011 46.293 46.293c9.721 9.885 23.239 16.011 38.188 16.011 0.375 0 0.748-0.004 1.122-0.012l-0.056 0.001c0.135 0.001 0.294 0.002 0.454 0.002 30.162 0 54.613-24.451 54.613-54.614 0-0.601-0.010-1.199-0.029-1.795l0.002 0.087c0.009-0.36 0.014-0.784 0.014-1.209 0-14.837-6.132-28.242-16-37.819l-0.013-0.012-46.293-46.294c-5.535-5.447-9.014-12.969-9.173-21.303l-0-0.030c0.207-8.356 3.675-15.863 9.172-21.332l0.002-0.002c5.71-5.519 13.498-8.921 22.080-8.921s16.37 3.401 22.089 8.929l-0.009-0.009 46.293 46.293c10.818 10.88 19.546 23.851 25.524 38.253l0.289 0.787c5.353 12.606 8.485 27.264 8.534 42.648v0.018c-0.17 16.111-3.446 31.411-9.257 45.392l0.296-0.805z" />
<glyph unicode="&#xe159;" glyph-name="message" d="M427 298.333v43l-171-107-171 107v-43l171-106zM427 384.333c23 0 42-20 42-43v-256c0-23-19-43-42-43h-342c-23 0-42 20-42 43v256c0 23 19 43 42 43h342z" />
<glyph unicode="&#xe15a;" glyph-name="redo" d="M227.413 291.413h96v92.587l128-128-128-128v92.587h-96c-27.478-0.121-49.707-22.425-49.707-49.919 0 0 0-0 0-0v0-96c-1.475-18.454-16.814-32.872-35.52-32.872s-34.046 14.418-35.512 32.747l-0.008 0.125v96c0.121 66.638 54.109 120.626 120.735 120.747h0.012z" />
<glyph unicode="&#xe164;" glyph-name="exercise" d="M320 192h-256c-12.8 0-21.334 8.534-21.334 21.334s8.534 21.334 21.334 21.334h256c12.8 0 21.334-8.534 21.334-21.334s-8.534-21.334-21.334-21.334zM448 320h-384c-12.8 0-21.334 8.534-21.334 21.334s8.534 21.333 21.334 21.333h384c12.8 0 21.334-8.534 21.334-21.333s-8.534-21.334-21.334-21.334zM192 64h-128c-12.8 0-21.334 8.534-21.334 21.334s8.534 21.334 21.334 21.334h128c12.8 0 21.334-8.534 21.334-21.334s-8.534-21.334-21.334-21.334z" />
<glyph unicode="&#xe166;" glyph-name="undo" d="M288 291.413h-96v92.587l-128-128 128-128v92.587h96c27.57 0 49.92-22.35 49.92-49.92v0-96c0-19.558 15.855-35.413 35.413-35.413s35.413 15.855 35.413 35.413v0 96c-0.121 66.638-54.109 120.625-120.735 120.747h-0.012z" />
<glyph unicode="&#xe1e2;" glyph-name="shizhan1" d="M256 405.333c118 0 213-95 213-213 0-79-42-148-106-185l-22 37c51 30 86 85 86 148 0 94-77 170-171 170s-171-76-171-170c0-63 34-118 85-148l-21-37c-64 37-106 106-106 185 0 118 95 213 213 213zM384 192.333c0-47-26-89-64-111l-21 37c25 15 42 42 42 74 0 47-38 85-85 85s-85-38-85-85c0-32 17-59 42-74l-21-37c-38 22-64 64-64 111 0 71 57 128 128 128s128-57 128-128zM256 234.333c23 0 43-19 43-42s-20-43-43-43-43 20-43 43 20 42 43 42z" />
<glyph unicode="&#xe22b;" glyph-name="nav_note" d="M426.666 21.333h-213.333l42.667 42.666h170.667c11.782 0 21.334-9.551 21.334-21.334v0 0c0-11.782-9.551-21.334-21.334-21.334v0zM64 96.853v-75.52h75.52l235.094 235.094-75.52 75.52-235.094-235.094zM432.426 314.027c9.591 9.736 15.512 23.11 15.512 37.866s-5.922 28.13-15.519 37.874l0.007-0.007c-9.736 9.591-23.11 15.512-37.867 15.512s-28.13-5.922-37.873-15.519l0.007 0.007-27.307-27.094 75.947-75.947z" />
<glyph unicode="&#xe238;" glyph-name="bold" d="M336.64 217.813c14.236-6.547 25.89-16.626 34.159-29.138l0.188-0.302c7.89-11.933 12.587-26.579 12.587-42.322 0-0.122-0-0.243-0.001-0.364v0.019c0.017-0.601 0.026-1.307 0.026-2.016 0-21.608-8.73-41.178-22.856-55.374l0.003 0.003c-14.122-14.498-33.834-23.491-55.647-23.491-0.687 0-1.372 0.009-2.055 0.026l0.101-0.002h-153.814v297.813h136.746c0.615 0.016 1.341 0.026 2.067 0.026 23.392 0 44.553-9.556 59.791-24.977l0.008-0.008c15.161-15.041 24.546-35.884 24.546-58.92 0-0.511-0.005-1.021-0.014-1.53l0.001 0.077c-0.024-12.296-3.682-23.732-9.956-33.298l0.142 0.232c-6.635-10.791-15.37-19.663-25.7-26.258l-0.327-0.195zM214.4 308.693v-64h65.28c0.196-0.005 0.427-0.007 0.659-0.007 8.763 0 16.687 3.594 22.377 9.389l0.005 0.005c5.928 5.509 9.624 13.35 9.624 22.053 0 0.422-0.009 0.842-0.026 1.26l0.002-0.060c-0.28 8.42-3.907 15.943-9.586 21.32l-0.014 0.014c-5.643 5.675-13.456 9.188-22.089 9.188-0.334 0-0.668-0.005-1-0.015l0.048 0.001zM290.774 116.693c0.167-0.003 0.364-0.005 0.562-0.005 8.822 0 16.826 3.5 22.7 9.187l-0.009-0.009c5.807 5.858 9.396 13.923 9.396 22.827s-3.589 16.969-9.398 22.829l0.002-0.002c-5.865 5.678-13.87 9.178-22.692 9.178-0.197 0-0.394-0.002-0.591-0.005l0.029 0h-76.374v-64z" />
<glyph unicode="&#xe23f;" glyph-name="italic" d="M244.906 362.667h106.666c0.127 0.002 0.276 0.003 0.426 0.003 17.673 0 32-14.327 32-32 0-0.001 0-0.002 0-0.003v0c0-17.673-14.327-32-32-32v0h-27.947l-72.106-170.666h15.147c17.488-0.24 31.574-14.474 31.574-31.997 0-0.001 0-0.002 0-0.003v0c0-17.673-14.327-32-32-32v0h-106.666c-17.673 0-32 14.327-32 32v0 0c0 17.673 14.327 32 32 32v0h27.947l72.106 170.667h-15.147c-17.488 0.24-31.573 14.474-31.573 31.997 0 0.001 0 0.002 0 0.003v0c0 0.001 0 0.002 0 0.003 0 17.523 14.084 31.756 31.55 31.997h0.023z" />
<glyph unicode="&#xe241;" glyph-name="list_bulleted" d="M448 320h-277.334c-12.8 0-21.334 8.534-21.334 21.334s8.534 21.333 21.334 21.333h277.334c12.8 0 21.334-8.534 21.334-21.333s-8.534-21.334-21.334-21.334zM448 192h-277.334c-12.8 0-21.334 8.534-21.334 21.334s8.534 21.334 21.334 21.334h277.334c12.8 0 21.334-8.534 21.334-21.334s-8.534-21.334-21.334-21.334zM448 64h-277.334c-12.8 0-21.334 8.534-21.334 21.334s8.534 21.334 21.334 21.334h277.334c12.8 0 21.334-8.534 21.334-21.334s-8.534-21.334-21.334-21.334zM64 320c-2.133 0-2.133 0-4.267 0s-2.133 0-4.267 2.133c-2.133 0-2.133 2.134-4.267 2.134s-2.133 2.134-2.133 2.134-2.133 2.133-2.133 2.133c0 2.133-2.133 2.133-2.133 4.267-2.133 2.134-2.133 2.134-2.133 4.267s0 2.133 0 4.267 0 6.4 2.133 8.534c2.133 2.133 2.133 4.266 4.267 6.4 6.4 6.4 14.933 8.534 23.466 4.267 2.133-2.133 4.266-2.133 6.4-4.267 4.266-4.266 6.4-8.534 6.4-14.933 0-2.134 0-2.134 0-4.267s0-2.133-2.133-4.267c0-2.134-2.133-2.134-2.133-4.267 0 0-2.133-2.133-2.133-2.133-4.266-4.267-8.534-6.4-14.934-6.4zM64 192c-2.133 0-2.133 0-4.267 0s-2.133 0-4.267 2.134c-2.133 0-2.133 2.134-4.267 2.134s-2.133 2.134-2.133 2.134c-4.267 4.267-6.4 8.534-6.4 14.934 0 2.133 0 6.4 2.133 8.534s2.133 4.267 4.267 6.4c0 0 2.133 2.133 2.133 2.133 2.133 0 2.133 2.133 4.267 2.133s2.133 0 4.267 2.133c6.4 2.133 14.934 0 19.2-6.4 2.133-2.133 4.266-4.267 4.266-6.4 2.133-2.134 2.133-6.4 2.133-8.534s0-2.134 0-4.267 0-2.134-2.133-4.267c0-2.134-2.133-2.134-2.133-4.267 0 0-2.133-2.134-2.133-2.134-4.266-4.267-8.534-6.4-14.934-6.4zM64 64c-2.133 0-6.4 0-8.534 2.134-2.133 0-4.267 2.134-6.4 4.267-4.267 4.267-6.4 8.534-6.4 14.933 0 2.134 0 6.4 2.133 8.534s2.133 4.267 4.267 6.4c6.4 6.4 14.934 8.534 23.467 4.267 2.133 0 4.266-2.134 6.4-4.267s4.266-4.267 4.266-6.4c2.133-2.134 2.133-6.4 2.133-8.534s0-6.4-2.133-8.534c-2.133-2.134-2.133-4.267-4.266-6.4-4.266-4.267-8.534-6.4-14.934-6.4z" />
<glyph unicode="&#xe242;" glyph-name="list_numbered" d="M180.906 298.667h235.733c17.673 0 32 14.327 32 32s-14.327 32-32 32h-234.667c-17.673 0-32-14.327-32-32s14.327-32 32-32v0zM416.64 234.667h-234.667c-17.673 0-32-14.327-32-32s14.327-32 32-32h234.667c17.673 0 32 14.327 32 32s-14.327 32-32 32v0zM416.64 106.667h-234.667c-17.673 0-32-14.327-32-32s14.327-32 32-32h234.667c17.673 0 32 14.327 32 32s-14.327 32-32 32v0zM64 373.333v-21.334h21.334v-64h21.334v64c0 11.782-9.552 21.334-21.334 21.334v0zM64 245.333v-21.334h42.666v-10.666h-21.334c-11.782 0-21.334-9.551-21.334-21.334v0-10.666c0-11.782 9.552-21.334 21.334-21.334v0h42.666v21.334h-42.666v10.666h21.334c11.782 0 21.334 9.551 21.334 21.334v0 10.666c0 11.782-9.552 21.334-21.334 21.334v0zM64 117.333v-21.334h42.666v-10.666h-21.334v-21.334h21.334v-10.666h-42.666v-21.334h42.666c11.782 0 21.334 9.551 21.334 21.334v0 42.666c0 11.782-9.552 21.334-21.334 21.334v0z" />
<glyph unicode="&#xe244;" glyph-name="quote" d="M135.68 111.36l34.987 70.4h-21.333c-23.564 0-42.666 19.103-42.666 42.667v0 42.667c0 23.564 19.103 42.666 42.666 42.666v0h42.666c23.564 0 42.666-19.102 42.666-42.666v0-64c-0.051-13.938-3.436-27.073-9.398-38.666l0.224 0.479-33.494-69.12h-46.72c-5.916 0.12-10.666 4.945-10.666 10.878 0 1.707 0.393 3.322 1.094 4.76l-0.029-0.065zM306.346 111.36l34.986 70.4h-21.334c-23.564 0-42.666 19.103-42.666 42.667v0 42.667c0 23.564 19.103 42.666 42.666 42.666v0h42.666c23.564 0 42.666-19.102 42.666-42.666v0-64c-0.051-13.938-3.436-27.073-9.397-38.666l0.224 0.479-33.493-69.12h-46.72c-5.916 0.12-10.666 4.945-10.666 10.878 0 1.707 0.393 3.322 1.094 4.76l-0.029-0.065z" />
<glyph unicode="&#xe245;" glyph-name="format_size" d="M64 213.333v64h192v-64h-64v-149h-64v149h-64zM192 384.333h277v-64h-106v-256h-64v256h-107v64z" />
<glyph unicode="&#xe24f;" glyph-name="insert_invitation" d="M405 64.333v234h-298v-234h298zM341 448.333h43v-43h21c23 0 43-20 43-43v-298c0-23-20-43-43-43h-298c-24 0-43 20-43 43v298c0 23 19 43 43 43h21v43h43v-43h170v43zM363 213.333v-107h-107v107h107z" />
<glyph unicode="&#xe254;" glyph-name="edit1" d="M442 319.333l-39-39-80 80 39 39c8 8 22 8 30 0l50-50c8-8 8-22 0-30zM64 101.333l236 236 80-80-236-236h-80v80z" />
<glyph unicode="&#xe2bf;" glyph-name="cloud_done" d="M213 106.333l141 141-30 30-111-110-44 44-30-30zM413 255.333c55-4 99-50 99-106 0-59-48-107-107-107h-277c-71 0-128 57-128 128 0 66 50 120 114 127 27 51 80 87 142 87 78 0 142-55 157-129z" />
<glyph unicode="&#xe2c0;" glyph-name="cloud_download" d="M363 192.333h-64v85h-86v-85h-64l107-107zM413 255.333c55-4 99-50 99-106 0-59-48-107-107-107h-277c-71 0-128 57-128 128 0 66 50 120 114 127 27 51 80 87 142 87 78 0 142-55 157-129z" />
<glyph unicode="&#xe2c1;" glyph-name="cloud_off" d="M165 256.333h-37c-47 0-85-39-85-86s38-85 85-85h208zM64 357.333l27 27 357-357-27-27-43 42h-250c-71 0-128 57-128 128 0 69 55 125 123 128zM413 255.333c55-4 99-50 99-106 0-36-18-68-45-87l-31 31c20 11 33 32 33 56 0 35-29 64-64 64h-32v11c0 65-52 117-117 117-20 0-38-4-54-13l-32 31c25 16 54 25 86 25 78 0 142-55 157-129z" />
<glyph unicode="&#xe2c3;" glyph-name="cloud_upload" d="M299 192.333h64l-107 106-107-106h64v-86h86v86zM413 255.333c55-4 99-50 99-106 0-59-48-107-107-107h-277c-71 0-128 57-128 128 0 66 50 120 114 127 27 51 80 87 142 87 78 0 142-55 157-129z" />
<glyph unicode="&#xe2c7;" glyph-name="folder" d="M213 384.333l43-43h171c23 0 42-20 42-43v-213c0-23-19-43-42-43h-342c-23 0-42 20-42 43v256c0 23 19 43 42 43h128z" />
<glyph unicode="&#xe322;" glyph-name="memory" d="M363 106.333v214h-214v-214h214zM448 234.333h-43v-42h43v-43h-43v-43c0-23-19-42-42-42h-43v-43h-43v43h-42v-43h-43v43h-43c-23 0-42 19-42 42v43h-43v43h43v42h-43v43h43v43c0 23 19 42 42 42h43v43h43v-43h42v43h43v-43h43c23 0 42-19 42-42v-43h43v-43zM277 192.333v42h-42v-42h42zM320 277.333v-128h-128v128h128z" />
<glyph unicode="&#xe32b;" glyph-name="sim_card" d="M363 149.333v85h-43v-85h43zM277 192.333v42h-42v-42h42zM277 64.333v85h-42v-85h42zM192 149.333v85h-43v-85h43zM363 64.333v42h-43v-42h43zM192 64.333v42h-43v-42h43zM426 384.333l1-342c0-23-20-42-43-42h-256c-23 0-43 19-43 42v256l128 128h171c23 0 42-19 42-42z" />
<glyph unicode="&#xe3a6;" glyph-name="finish" d="M43 213.333c0 118 95 213 213 213s213-95 213-213-95-213-213-213-213 95-213 213z" />
<glyph unicode="&#xe3ba;" glyph-name="add_circle_o" d="M256 448c-130.133 0-234.667-104.534-234.667-234.667s104.534-234.667 234.667-234.667 234.667 104.534 234.667 234.667-104.534 234.667-234.667 234.667zM256 21.333c-106.666 0-192 85.334-192 192s85.334 192 192 192c106.666 0 192-85.334 192-192s-85.334-192-192-192zM341.334 234.667h-64v64c0 12.8-8.534 21.333-21.334 21.333s-21.334-8.534-21.334-21.333v-64h-64c-12.8 0-21.334-8.534-21.334-21.334s8.534-21.334 21.334-21.334h64v-64c0-12.8 8.534-21.334 21.334-21.334s21.334 8.534 21.334 21.334v64h64c12.8 0 21.334 8.534 21.334 21.334s-8.534 21.334-21.334 21.334z" />
<glyph unicode="&#xe3c4;" glyph-name="import_image" d="M298 207.333l75-101h-234l58 76 42-51zM405 64.333v298h-298v-298h298zM405 405.333c23 0 43-20 43-43v-298c0-23-20-43-43-43h-298c-23 0-43 20-43 43v298c0 23 20 43 43 43h298z" />
<glyph unicode="&#xe3dd;" glyph-name="filter_drama" d="M405 85.333c35 0 64 29 64 64s-29 64-64 64h-32v11c0 65-52 117-117 117-38 0-72-18-94-47 54-15 94-65 94-124h-43c0 47-38 86-85 86s-85-39-85-86 38-85 85-85h277zM413 255.333c55-4 99-50 99-106 0-59-48-107-107-107h-277c-71 0-128 57-128 128 0 66 50 120 114 127 27 51 80 87 142 87 78 0 142-55 157-129z" />
<glyph unicode="&#xe408;" glyph-name="arrow2_l" d="M320 64c-6.4 0-10.666 2.134-14.933 6.4l-128 128c-8.534 8.534-8.534 21.334 0 29.867l128 128c8.534 8.534 21.334 8.534 29.866 0s8.534-21.334 0-29.867l-113.067-113.067 113.067-113.067c8.534-8.534 8.534-21.334 0-29.866-4.267-4.267-8.534-6.4-14.933-6.4z" />
<glyph unicode="&#xe409;" glyph-name="arrow2_r" d="M192 64c-6.4 0-10.666 2.134-14.934 6.4-8.534 8.534-8.534 21.334 0 29.866l113.066 113.067-113.067 113.067c-8.534 8.534-8.534 21.334 0 29.867s21.334 8.534 29.867 0l128-128c8.534-8.534 8.534-21.334 0-29.867l-128-128c-4.267-4.267-8.534-6.4-14.934-6.4z" />
<glyph unicode="&#xe410;" glyph-name="photo_image" d="M181 181.333l-74-96h298l-96 128-74-96zM448 64.333c0-23-20-43-43-43h-298c-23 0-43 20-43 43v298c0 23 20 43 43 43h298c23 0 43-20 43-43v-298z" />
<glyph unicode="&#xe412;" glyph-name="photo" d="M256 106.333c59 0 107 48 107 107s-48 107-107 107-107-48-107-107 48-107 107-107zM192 426.333h128l39-42h68c23 0 42-20 42-43v-256c0-23-19-43-42-43h-342c-23 0-42 20-42 43v256c0 23 19 43 42 43h68zM188 213.333c0 38 30 68 68 68s68-30 68-68-30-68-68-68-68 30-68 68z" />
<glyph unicode="&#xe41c;" glyph-name="straighten" d="M448 298.333v-170h-43v85h-42v-85h-43v85h-43v-85h-42v85h-43v-85h-43v85h-42v-85h-43v170h384zM448 85.333c23 0 43 20 43 43v170c0 23-20 43-43 43h-384c-23 0-43-20-43-43v-170c0-23 20-43 43-43h384z" />
<glyph unicode="&#xe420;" glyph-name="tag_faces" d="M256 96.333c-50 0-92 30-109 74h218c-17-44-59-74-109-74zM181 234.333c-18 0-32 14-32 32s14 32 32 32 32-14 32-32-14-32-32-32zM331 234.333c-18 0-32 14-32 32s14 32 32 32 32-14 32-32-14-32-32-32zM256 42.333c94 0 171 77 171 171s-77 171-171 171-171-77-171-171 77-171 171-171zM256 426.333c118 0 213-95 213-213s-95-213-213-213-213 95-213 213 95 213 213 213z" />
<glyph unicode="&#xe429;" glyph-name="set_2" d="M320 277.333v128h43v-43h85v-42h-85v-43h-43zM448 192.333h-213v42h213v-42zM149 277.333h43v-128h-43v43h-85v42h85v43zM277 21.333h-42v128h42v-43h171v-42h-171v-43zM64 362.333h213v-42h-213v42zM64 106.333h128v-42h-128v42z" />
<glyph unicode="&#xe42d;" glyph-name="cloud" d="M413 255.333c55-4 99-50 99-106 0-59-48-107-107-107h-277c-71 0-128 57-128 128 0 66 50 120 114 127 27 51 80 87 142 87 78 0 142-55 157-129z" />
<glyph unicode="&#xe42e;" glyph-name="bright" d="M368 344.333l30-29 38 38-30 30zM427 181.333h64v43h-64v-43zM320 92.333c38 22 64 63 64 110 0 71-57 128-128 128s-128-57-128-128c0-47 26-88 64-110v-103h128v103zM85 181.333v43h-64v-43h64zM235 436.333v-63h42v63h-42zM76 353.333l38-39 30 30-38 39z" />
<glyph unicode="&#xe563;" glyph-name="score_shop" d="M256 85.333v85h-128v-85h128zM448 170.333h-21v-128h-43v128h-85v-128h-214v128h-21v43l21 107h342l21-107v-43zM427 384.333v-43h-342v43h342z" />
<glyph unicode="&#xe5c4;" glyph-name="arrow3_l" d="M405.334 234.667h-247.466l113.067 113.067c8.534 8.534 8.534 21.333 0 29.866s-21.334 8.534-29.867 0l-149.333-149.333c-2.133-2.133-4.266-4.267-4.266-6.4-2.133-4.267-2.133-10.667 0-17.067 2.133-2.134 2.133-4.267 4.266-6.4l149.333-149.333c4.267-4.267 10.667-6.4 14.934-6.4s10.666 2.134 14.933 6.4c8.534 8.534 8.534 21.334 0 29.866l-113.067 113.067h247.466c12.8 0 21.334 8.534 21.334 21.334s-8.534 21.334-21.334 21.334z" />
<glyph unicode="&#xe5c5;" glyph-name="arrow1_d" d="M149 256.333h214l-107-107z" />
<glyph unicode="&#xe5c6;" glyph-name="arrow1_l" d="M299 320.333v-214l-107 107z" />
<glyph unicode="&#xe5c7;" glyph-name="arrow1_u" d="M149 170.333l107 107 107-107h-214z" />
<glyph unicode="&#xe5c8;" glyph-name="arrow3_r" d="M424.534 204.8c2.134 4.267 2.134 10.666 0 17.067-2.134 2.133-2.134 4.267-4.267 6.4l-149.334 149.333c-8.534 8.534-21.334 8.534-29.867 0s-8.534-21.334 0-29.866l113.066-113.067h-247.466c-12.8 0-21.334-8.534-21.334-21.334s8.534-21.334 21.334-21.334h247.466l-113.067-113.067c-8.534-8.534-8.534-21.334 0-29.866 4.267-4.267 10.666-6.4 14.933-6.4s10.666 2.134 14.933 6.4l149.334 149.333c2.134 2.134 4.267 4.267 4.267 6.4z" />
<glyph unicode="&#xe5c9;" glyph-name="close_c" d="M363 136.333l-77 77 77 77-30 30-77-77-77 77-30-30 77-77-77-77 30-30 77 77 77-77zM256 426.333c118 0 213-95 213-213s-95-213-213-213-213 95-213 213 95 213 213 213z" />
<glyph unicode="&#xe5ca;" glyph-name="check" d="M192 85.333c-6.4 0-10.666 2.134-14.934 6.4l-106.666 106.666c-8.534 8.534-8.534 21.334 0 29.867s21.334 8.534 29.867 0l91.734-91.734 219.733 219.733c8.534 8.534 21.334 8.534 29.866 0s8.534-21.333 0-29.866l-234.667-234.667c-4.267-4.267-8.534-6.4-14.934-6.4z" />
<glyph unicode="&#xe5cb;" glyph-name="arrow1_r" d="M213 320.333v-214l107 107z" />
<glyph unicode="&#xe5cd;" glyph-name="close1" d="M128 64c-6.4 0-10.666 2.134-14.933 6.4-8.534 8.534-8.534 21.334 0 29.866l256 256c8.534 8.534 21.334 8.534 29.866 0s8.534-21.333 0-29.866l-256-256c-4.267-4.267-8.534-6.4-14.933-6.4zM384 64c-6.4 0-10.666 2.134-14.933 6.4l-256 256c-8.534 8.534-8.534 21.334 0 29.867s21.334 8.534 29.867 0l256-256c8.534-8.534 8.534-21.334 0-29.866-4.267-4.267-8.534-6.4-14.933-6.4z" />
<glyph unicode="&#xe5ce;" glyph-name="arrow2_u" d="M384 128c-6.4 0-10.666 2.134-14.933 6.4l-113.067 113.067-113.067-113.067c-8.534-8.534-21.334-8.534-29.867 0s-8.534 21.334 0 29.866l128 128c8.534 8.534 21.333 8.534 29.867 0l128-128c8.534-8.534 8.534-21.334 0-29.866-4.267-4.267-8.534-6.4-14.933-6.4z" />
<glyph unicode="&#xe5cf;" glyph-name="arrow2_d" d="M256 128c-6.4 0-10.666 2.134-14.934 6.4l-128 128c-8.534 8.534-8.534 21.334 0 29.867s21.333 8.534 29.867 0l113.067-113.067 113.067 113.067c8.534 8.534 21.334 8.534 29.866 0s8.534-21.334 0-29.867l-128-128c-4.267-4.267-8.534-6.4-14.934-6.4z" />
<glyph unicode="&#xe5d0;" glyph-name="fullscreen" d="M405.334-0h-64c-12.8 0-21.334 8.534-21.334 21.334s8.534 21.334 21.334 21.334h64c12.8 0 21.334 8.534 21.334 21.334v64c0 12.8 8.534 21.334 21.334 21.334s21.334-8.534 21.334-21.334v-64c0-36.267-27.733-64-64-64zM170.667-0h-64c-36.267 0-64 27.733-64 64v64c0 12.8 8.534 21.334 21.334 21.334s21.334-8.534 21.334-21.334v-64c0-12.8 8.534-21.334 21.334-21.334h64c12.8 0 21.334-8.534 21.334-21.334s-8.534-21.334-21.334-21.334zM448 277.333c-12.8 0-21.334 8.534-21.334 21.333v64c0 12.8-8.534 21.334-21.334 21.334h-64c-12.8 0-21.334 8.534-21.334 21.334s8.534 21.334 21.334 21.334h64c36.267 0 64-27.733 64-64v-64c0-12.8-8.534-21.333-21.334-21.333zM64 277.333c-12.8 0-21.334 8.534-21.334 21.333v64c0 36.267 27.734 64 64 64h64c12.8 0 21.334-8.534 21.334-21.333s-8.534-21.334-21.334-21.334h-64c-12.8 0-21.334-8.534-21.334-21.334v-64c0-12.8-8.534-21.333-21.334-21.333z" />
<glyph unicode="&#xe5d1;" glyph-name="fullscreen_exit" d="M341.334-0c-12.8 0-21.334 8.534-21.334 21.334v64c0 36.267 27.733 64 64 64h64c12.8 0 21.334-8.534 21.334-21.334s-8.534-21.334-21.334-21.334h-64c-12.8 0-21.334-8.534-21.334-21.334v-64c0-12.8-8.534-21.334-21.334-21.334zM170.667-0c-12.8 0-21.333 8.534-21.333 21.334v64c0 12.8-8.534 21.334-21.334 21.334h-64c-12.8 0-21.334 8.534-21.334 21.334s8.534 21.334 21.334 21.334h64c36.266 0 64-27.733 64-64v-64c0-12.8-8.534-21.334-21.334-21.334zM448 277.333h-64c-36.267 0-64 27.733-64 64v64c0 12.8 8.534 21.333 21.334 21.333s21.334-8.534 21.334-21.333v-64c0-12.8 8.534-21.334 21.334-21.334h64c12.8 0 21.334-8.534 21.334-21.333s-8.534-21.334-21.334-21.334zM128 277.333h-64c-12.8 0-21.334 8.534-21.334 21.333s8.534 21.334 21.334 21.334h64c12.8 0 21.334 8.534 21.334 21.333v64c0 12.8 8.534 21.334 21.334 21.334s21.334-8.534 21.334-21.334v-64c0-36.266-27.733-64-64-64z" />
<glyph unicode="&#xe5d3;" glyph-name="more_horiz" d="M256 256.333c23 0 43-20 43-43s-20-43-43-43-43 20-43 43 20 43 43 43zM384 256.333c23 0 43-20 43-43s-20-43-43-43-43 20-43 43 20 43 43 43zM128 256.333c23 0 43-20 43-43s-20-43-43-43-43 20-43 43 20 43 43 43z" />
<glyph unicode="&#xe5d8;" glyph-name="arrow3_u" d="M420.267 228.267l-149.334 149.333c-2.134 2.134-4.267 4.267-6.4 4.267-4.267 2.133-10.666 2.133-17.066 0-2.133-2.133-4.267-2.133-6.4-4.267l-149.333-149.333c-8.534-8.534-8.534-21.334 0-29.867s21.334-8.534 29.867 0l113.067 113.067v-247.467c0-12.8 8.534-21.334 21.334-21.334s21.334 8.534 21.334 21.334v247.467l113.067-113.067c4.267-4.267 10.666-6.4 14.933-6.4s10.666 2.134 14.933 6.4c8.534 8.534 8.534 21.334 0 29.867z" />
<glyph unicode="&#xe5db;" glyph-name="arrow3_d" d="M256 42.667c-12.8 0-21.334 8.534-21.334 21.334v298.666c0 12.8 8.534 21.334 21.334 21.334s21.334-8.534 21.334-21.334v-298.666c0-12.8-8.534-21.334-21.334-21.334zM256 42.667c-6.4 0-10.666 2.134-14.934 6.4l-149.333 149.334c-8.534 8.534-8.534 21.334 0 29.867s21.334 8.534 29.867 0l134.4-134.4 134.4 134.4c8.534 8.534 21.334 8.534 29.866 0s8.534-21.334 0-29.867l-149.333-149.333c-4.267-4.267-8.534-6.4-14.934-6.4z" />
<glyph unicode="&#xe600;" glyph-name="tick" d="M384-0c23.466 0 42.666 19.2 42.666 42.666v341.334c0 23.466-19.2 42.667-42.666 42.667h-128v-149.333l-53.334 32-53.334-32v149.333h-21.334c-23.466 0-42.666-19.2-42.666-42.667v-341.334c0-23.466 19.2-42.666 42.666-42.666h256z" />
<glyph unicode="&#xe601;" glyph-name="home" d="M213 42.333h-106v171h-64l213 192 213-192h-64v-171h-106v128h-86v-128z" />
<glyph unicode="&#xe602;" glyph-name="clock" d="M267 320.333v-112l96-57-16-27-112 68v128h32zM256 42.333q70 0 120.5 50.5t50.5 120.5-50.5 120.5-120.5 50.5-120.5-50.5-50.5-120.5 50.5-120.5 120.5-50.5zM256 426.333q88 0 150.5-62.5t62.5-150.5-62.5-150.5-150.5-62.5-150.5 62.5-62.5 150.5 62.5 150.5 150.5 62.5z" />
<glyph unicode="&#xe603;" glyph-name="chat" d="M448 309.333h-32v-32h32c17.6 0 32-14.4 32-32v-128c0-17.6-14.4-32-32-32h-89.6l-102.4-68.8v68.8h-64c-17.6 0-32 14.4-32 32v46.4l-25.6 17.6h-6.4v-64c0-35.2 28.8-64 64-64h32v-96l144 96h80c35.2 0 64 28.8 64 64v128c0 35.2-28.8 64-64 64zM144 213.333l144-96v96h32c35.2 0 64 28.8 64 64v128c0 35.2-28.8 64-64 64h-256c-35.2 0-64-28.8-64-64v-128c0-35.2 28.8-64 64-64h80zM32 277.333v128c0 17.6 14.4 32 32 32h256c17.6 0 32-14.4 32-32v-128c0-17.6-14.4-32-32-32h-64v-68.8l-102.4 68.8h-89.6c-17.6 0-32 14.4-32 32z" />
<glyph unicode="&#xe604;" glyph-name="msg" d="M160 261.333c0-17.673-14.327-32-32-32s-32 14.327-32 32c0 17.673 14.327 32 32 32s32-14.327 32-32zM288 261.333c0-17.673-14.327-32-32-32s-32 14.327-32 32c0 17.673 14.327 32 32 32s32-14.327 32-32zM416 261.333c0-17.673-14.327-32-32-32s-32 14.327-32 32c0 17.673 14.327 32 32 32s32-14.327 32-32zM448 437.333h-384c-35.2 0-64-28.8-64-64v-224c0-35.2 28.8-64 64-64h32v-96l144 96h208c35.2 0 64 28.8 64 64v224c0 35.2-28.8 64-64 64zM480 149.333c0-17.6-14.4-32-32-32h-217.6l-102.4-68.8v68.8h-64c-17.6 0-32 14.4-32 32v224c0 17.6 14.4 32 32 32h384c17.6 0 32-14.4 32-32v-224z" />
<glyph unicode="&#xe605;" glyph-name="resp" d="M272 293.333c0 0-19.2 0-32 0-104 0-112-112-112-112s35.2 48 112 48c12.8 0 32 0 32 0v-48l112 80-112 80v-48zM448 437.333h-384c-35.2 0-64-28.8-64-64v-224c0-35.2 28.8-64 64-64h32v-96l144 96h208c35.2 0 64 28.8 64 64v224c0 35.2-28.8 64-64 64zM480 149.333c0-17.6-14.4-32-32-32h-217.6l-102.4-68.8v68.8h-64c-17.6 0-32 14.4-32 32v224c0 17.6 14.4 32 32 32h384c17.6 0 32-14.4 32-32v-224z" />
<glyph unicode="&#xe606;" glyph-name="addques" d="M456.534 413.867c-8.534 8.534-19.2 12.8-29.866 12.8h-341.334c-10.666 0-21.334-4.267-29.867-12.8s-12.8-19.2-12.8-29.867v-384l85.334 85.334h298.667c10.666 0 21.334 4.267 29.866 12.8s12.8 19.2 12.8 29.866v256c0 10.666-4.267 21.333-12.8 29.866zM341.334 234.667h-64v-64h-42.666v64h-64v42.666h64v64h42.666v-64h64v-42.666z" />
<glyph unicode="&#xe607;" glyph-name="user" d="M256 469.333c-140.8 0-256-115.2-256-256s115.2-256 256-256 256 115.2 256 256-115.2 256-256 256zM128 29.333c3.2 67.2 59.2 121.6 128 121.6s124.8-54.4 128-121.6c-36.8-25.6-80-40-128-40s-91.2 14.4-128 40zM412.8 53.333c-14.4 73.6-78.4 129.6-156.8 129.6s-142.4-56-156.8-129.6c-41.6 41.6-67.2 97.6-67.2 160 0 123.2 100.8 224 224 224s224-100.8 224-224c0-62.4-25.6-118.4-67.2-160zM256 373.333c-44.8 0-80-35.2-80-80s35.2-80 80-80 80 35.2 80 80-35.2 80-80 80zM256 245.333c-27.2 0-48 20.8-48 48s20.8 48 48 48 48-20.8 48-48-20.8-48-48-48z" />
<glyph unicode="&#xe608;" glyph-name="wiki" d="M256 384c93.866 0 170.667-76.8 170.667-170.666s-76.8-170.667-170.667-170.667-170.667 76.8-170.667 170.667 76.8 170.667 170.667 170.667zM256 426.667c-117.334 0-213.333-96-213.333-213.334s96-213.333 213.333-213.333 213.333 96 213.333 213.334-96 213.333-213.333 213.333v0zM313.6 91.733l-57.6 117.334-57.6-117.334-70.4 221.867 42.666 12.8 36.267-119.466 49.066 96 49.066-96 36.267 119.467 42.666-12.8z" />
<glyph unicode="&#xe609;" glyph-name="plan" d="M405.334 405.333h-89.6c-8.534 25.6-32 42.666-59.733 42.666s-51.2-17.067-59.733-42.666h-89.6c-23.466 0-42.666-19.2-42.666-42.667v-341.334c0-23.466 19.2-42.666 42.666-42.666h298.667c23.466 0 42.666 19.2 42.666 42.666v341.334c0 23.466-19.2 42.667-42.666 42.667zM256 405.333c12.8 0 21.334-8.534 21.334-21.334s-8.534-21.333-21.334-21.333-21.334 8.534-21.334 21.333 8.534 21.334 21.334 21.334zM405.334 21.333h-298.666v341.334h42.666v-64h213.334v64h42.666v-341.334z" />
<glyph unicode="&#xe60a;" glyph-name="note" d="M441.6 320l-38.4-38.4-81.067 81.067 40.534 36.267c4.267 4.267 8.534 6.4 14.933 6.4s10.666-2.134 14.933-6.4l49.067-49.066c4.267-4.267 6.4-8.534 6.4-14.934s-2.134-10.666-6.4-14.934zM64 100.267l236.8 236.8 81.067-81.067-236.8-234.666h-81.067v78.933z" />
<glyph unicode="&#xe60b;" glyph-name="edit" d="M42.666 102.4v-81.067h81.067l234.666 236.8-81.067 81.067-234.667-236.8zM420.267 320c8.534 8.534 8.534 21.334 0 29.867l-49.067 49.066c-8.534 8.534-21.334 8.534-29.866 0l-38.4-38.4 81.067-81.067 36.267 40.534zM234.667 64l-42.667-42.666h277.334v42.666h-234.667z" />
<glyph unicode="&#xe60c;" glyph-name="share" d="M504 307.733c-4.8 9.6-12.8 17.6-22.4 24s-20.8 9.6-33.6 9.6c-35.2 0-64-28.8-64-64 0-8 1.6-14.4 4.8-22.4-38.4-41.6-70.4-89.6-94.4-142.4-6.4 3.2-14.4 4.8-22.4 4.8-1.6 0-3.2 0-4.8 0-25.6 91.2-75.2 172.8-142.4 236.8 1.6 6.4 3.2 12.8 3.2 19.2 0 35.2-28.8 64-64 64-12.8 0-24-3.2-35.2-9.6-8-6.4-16-14.4-20.8-25.6-4.8-8-8-17.6-8-28.8 0-35.2 28.8-64 64-64 17.6 0 32 6.4 43.2 17.6 60.8-59.2 105.6-136 129.6-219.2-17.6-12.8-28.8-32-28.8-54.4 0-30.4 20.8-54.4 48-60.8 1.6 0 3.2-1.6 4.8-1.6 3.2 0 8-1.6 11.2-1.6 4.8 0 11.2 1.6 16 1.6 1.6 0 3.2 1.6 4.8 1.6 25.6 8 43.2 32 43.2 60.8 0 16-6.4 28.8-14.4 40 20.8 49.6 49.6 96 86.4 134.4 11.2-9.6 25.6-16 41.6-16 35.2 0 64 28.8 64 64-1.6 12.8-4.8 24-9.6 32zM83.2 347.733c-4.8-3.2-11.2-6.4-19.2-6.4-17.6 0-32 14.4-32 32 0 4.8 1.6 9.6 3.2 12.8 4.8 11.2 16 19.2 27.2 19.2 1.6 0 1.6 0 1.6 0 14.4 0 27.2-9.6 30.4-24 1.6-3.2 1.6-4.8 1.6-8 0-9.6-4.8-19.2-12.8-25.6zM272 21.333c-1.6 0-4.8 0-6.4 0-4.8 1.6-9.6 3.2-12.8 6.4-8 6.4-12.8 14.4-12.8 25.6 0 6.4 1.6 12.8 6.4 19.2 6.4 8 16 12.8 25.6 12.8 1.6 0 3.2 0 4.8 0s4.8-1.6 6.4-1.6c12.8-4.8 20.8-16 20.8-30.4 0-12.8-8-24-19.2-28.8-3.2-1.6-8-3.2-12.8-3.2zM480 277.333c0-17.6-14.4-32-32-32-6.4 0-12.8 1.6-19.2 6.4-8 6.4-12.8 16-12.8 25.6 0 1.6 0 3.2 0 6.4 3.2 14.4 16 25.6 32 25.6 0 0 0 0 0 0 12.8 0 24-8 28.8-19.2 1.6-3.2 3.2-8 3.2-12.8z" />
<glyph unicode="&#xe60d;" glyph-name="set" d="M256 138.333q31 0 53 22t22 53-22 53-53 22-53-22-22-53 22-53 53-22zM415 192.333l45-35q7-5 2-14l-43-74q-4-7-13-4l-53 21q-21-15-36-21l-8-56q-2-9-10-9h-86q-8 0-10 9l-8 56q-19 8-36 21l-53-21q-9-3-13 4l-43 74q-5 9 2 14l45 35q-1 7-1 21t1 21l-45 35q-7 5-2 14l43 74q4 7 13 4l53-21q21 15 36 21l8 56q2 9 10 9h86q8 0 10-9l8-56q19-8 36-21l53 21q9 3 13-4l43-74q5-9-2-14l-45-35q1-7 1-21t-1-21z" />
<glyph unicode="&#xe60e;" glyph-name="camera" d="M448 341.333h-64l-46.4 46.4c-9.6 9.6-28.8 17.6-41.6 17.6h-80c-12.8 0-32-8-41.6-17.6l-46.4-46.4h-64c-35.2 0-64-28.8-64-64v-192c0-35.2 28.8-64 64-64h384c35.2 0 64 28.8 64 64v192c0 35.2-28.8 64-64 64zM480 85.333c0-17.6-14.4-32-32-32h-384c-17.6 0-32 14.4-32 32v192c0 17.6 14.4 32 32 32h76.8l56 56c4.8 3.2 14.4 8 19.2 8h80c4.8 0 14.4-4.8 17.6-8l56-56h78.4c17.6 0 32-14.4 32-32v-192zM256 309.333c-62.4 0-112-49.6-112-112s49.6-112 112-112 112 49.6 112 112-49.6 112-112 112zM256 117.333c-44.8 0-80 35.2-80 80s35.2 80 80 80 80-35.2 80-80-35.2-80-80-80zM416 373.333h32c8 0 16 6.4 16 16s-8 16-16 16h-32c-8 0-16-6.4-16-16s8-16 16-16z" />
<glyph unicode="&#xe60f;" glyph-name="del" d="M128 64c0-23.466 19.2-42.666 42.666-42.666h170.666c23.466 0 42.666 19.2 42.666 42.666v256h-256v-256zM405.334 384h-74.666l-21.334 21.334h-106.666l-21.334-21.334h-74.666v-42.666h298.666v42.666z" />
<glyph unicode="&#xe610;" glyph-name="search" d="M203 170.333q40 0 68 28t28 68-28 68-68 28-68-28-28-68 28-68 68-28zM331 170.333l106-106-32-32-106 106v17l-6 6q-38-33-90-33-58 0-98.5 40t-40.5 98 40.5 98.5 98.5 40.5 98-40.5 40-98.5q0-52-33-90l6-6h17z" />
<glyph unicode="&#xe611;" glyph-name="key" d="M160 437.333c70.4 0 128-57.6 128-128 0-11.2-1.6-22.4-4.8-33.6l-4.8-17.6 201.6-201.6v-67.2h-32v64h-64v64h-64v64h-160c-70.4 0-128 57.6-128 128s57.6 128 128 128zM160 469.333c-88 0-160-72-160-160s72-160 160-160c4.8 0 128 0 128 0v-64h64v-64h64v-64h96v112l-198.4 198.4c3.2 12.8 6.4 27.2 6.4 41.6 0 88-72 160-160 160v0zM176 341.333c0-26.51-21.49-48-48-48s-48 21.49-48 48c0 26.51 21.49 48 48 48s48-21.49 48-48z" />
<glyph unicode="&#xe612;" glyph-name="mail" d="M426.666 298.667v42.667l-170.667-106.667-170.667 106.667v-42.667l170.667-106.666 170.667 106.666zM426.666 384c10.666 0 21.334-4.266 29.866-12.8s12.8-19.2 12.8-29.866v-256c0-10.666-4.267-21.334-12.8-29.866s-19.2-12.8-29.866-12.8h-341.334c-10.666 0-21.334 4.267-29.867 12.8s-12.8 19.2-12.8 29.866v256c0 10.666 4.267 21.333 12.8 29.866s19.2 12.8 29.867 12.8h341.334z" />
<glyph unicode="&#xe613;" glyph-name="smail" d="M208 123.733c-12.8 3.2-25.6 9.6-38.4 16-8 4.8-20.8 12.8-40 27.2v-20.8c22.4-20.8 44.8-36.8 67.2-46.4 19.2-8 40-12.8 60.8-12.8 24 0 46.4 6.4 68.8 17.6s41.6 25.6 59.2 41.6v19.2c-43.2-33.6-84.8-49.6-128-49.6-17.6 0-33.6 3.2-49.6 8zM160 229.333c17.6 0 32 14.4 32 32s-14.4 32-32 32-32-14.4-32-32c0-17.6 14.4-32 32-32zM352 229.333c17.6 0 32 14.4 32 32s-14.4 32-32 32-32-14.4-32-32c0-17.6 14.4-32 32-32zM256 469.333c-140.8 0-256-115.2-256-256s115.2-256 256-256c140.8 0 256 115.2 256 256s-115.2 256-256 256zM256-10.667c-123.2 0-224 100.8-224 224s100.8 224 224 224c123.2 0 224-100.8 224-224s-100.8-224-224-224z" />
<glyph unicode="&#xe614;" glyph-name="point" d="M256 42.333q70 0 120.5 50.5t50.5 120.5-50.5 120.5-120.5 50.5-120.5-50.5-50.5-120.5 50.5-120.5 120.5-50.5zM256 426.333q88 0 150.5-62.5t62.5-150.5-62.5-150.5-150.5-62.5-150.5 62.5-62.5 150.5 62.5 150.5 150.5 62.5zM235 320.333h42v-128h-42v128zM235 149.333h42v-43h-42v43z" />
<glyph unicode="&#xe615;" glyph-name="ques" d="M256 341.333c47 0 85-38 85-85 0-53-64-59-64-107h-42c0 69 64 64 64 107 0 23-20 42-43 42s-43-19-43-42h-42c0 47 38 85 85 85zM256 42.333c94 0 171 77 171 171s-77 171-171 171-171-77-171-171 77-171 171-171zM256 426.333c118 0 213-95 213-213s-95-213-213-213-213 95-213 213 95 213 213 213zM235 85.333v43h42v-43h-42z" />
<glyph unicode="&#xe616;" glyph-name="tick2" d="M151.048 261.97l-35.838-35.837 115.192-115.192 255.983 255.983-35.837 35.838-220.144-220.145-79.355 79.355zM460.786 213.333c0-112.632-92.154-204.786-204.786-204.786s-204.786 92.154-204.786 204.786c0 112.632 92.154 204.786 204.786 204.786 20.478 0 38.397-2.56 56.317-7.679l40.957 40.957c-30.718 10.24-63.995 17.919-97.273 17.919-140.791 0-255.982-115.192-255.982-255.982s115.192-255.982 255.982-255.982 255.982 115.192 255.982 255.982h-51.196z" />
<glyph unicode="&#xe617;" glyph-name="chapter" d="M42.666 213.333c0-117.866 95.466-213.333 213.334-213.333s213.333 95.466 213.333 213.334-95.466 213.333-213.333 213.333-213.333-95.466-213.333-213.333zM341.334 192v-42.666h-170.667v42.666h170.667zM341.334 277.333v-42.667h-170.667v42.667h170.667z" />
<glyph unicode="&#xe618;" glyph-name="mobile" d="M352 469.333h-192c-35.2 0-64-28.8-64-64v-384c0-35.2 28.8-64 64-64h192c35.2 0 64 28.8 64 64v384c0 35.2-28.8 64-64 64zM384 21.333c0-17.6-14.4-32-32-32h-192c-17.6 0-32 14.4-32 32v64h256v-64zM128 117.333v288c0 17.6 14.4 32 32 32h192c17.6 0 32-14.4 32-32v-288h-256zM240 53.333h32v-32h-32v32z" />
<glyph unicode="&#xe619;" glyph-name="gotop" d="M265.6 338.133c-6.4 4.8-14.4 4.8-20.8 0l-192-160c-6.4-6.4-8-16-1.6-22.4s16-8 22.4-1.6l166.4 137.6v-286.4c0-9.6 6.4-16 16-16s16 6.4 16 16v286.4l166.4-137.6c3.2-3.2 6.4-3.2 9.6-3.2 4.8 0 9.6 1.6 12.8 6.4 6.4 6.4 4.8 17.6-1.6 22.4l-193.6 158.4zM64 405.333h384c9.6 0 16 6.4 16 16s-6.4 16-16 16h-384c-9.6 0-16-6.4-16-16s6.4-16 16-16z" />
<glyph unicode="&#xe61a;" glyph-name="statistic" d="M112 373.333h48v-32h-48v32zM192 373.333h208v-32h-208v32zM112 277.333h48v-32h-48v32zM192 277.333h208v-32h-208v32zM112 181.333h48v-32h-48v32zM192 181.333h208v-32h-208v32zM112 85.333h48v-32h-48v32zM192 85.333h208v-32h-208v32zM416 437.333c17.6 0 32-14.4 32-32v-384c0-17.6-14.4-32-32-32h-320c-17.6 0-32 14.4-32 32v384c0 17.6 14.4 32 32 32h320zM416 469.333h-320c-35.2 0-64-28.8-64-64v-384c0-35.2 28.8-64 64-64h320c35.2 0 64 28.8 64 64v384c0 35.2-28.8 64-64 64v0z" />
<glyph unicode="&#xe61b;" glyph-name="code" d="M311 115.333l99 98-99 98 30 30 128-128-128-128zM201 115.333l-30-30-128 128 128 128 30-30-99-98z" />
<glyph unicode="&#xe61c;" glyph-name="video" d="M171 362.333l234-149-234-149v298z" />
<glyph unicode="&#xe61d;" glyph-name="test" d="M64 192.333v42h256v-42h-256zM64 341.333h384v-43h-384v43zM64 85.333v43h128v-43h-128z" />
<glyph unicode="&#xe61e;" glyph-name="menu" d="M64 341.333h384v-42.667h-384v42.667zM64 234.667h384v-42.667h-384v42.667zM64 128h384v-42.666h-384v42.666z" />
<glyph unicode="&#xe61f;" glyph-name="plus" d="M517.263 194.672h-242.601v-242.601h-37.323v242.601h-242.601v37.323h242.601v242.601h37.323v-242.601h242.601z" />
<glyph unicode="&#xe620;" glyph-name="sub" horiz-adv-x="525" d="M-0.061 232.977h510.738v-39.288h-510.738v39.288z" />
<glyph unicode="&#xe621;" glyph-name="close" d="M425.6 360.533l-22.4 22.4-147.2-147.2-147.2 147.2-22.4-22.4 147.2-147.2-147.2-147.2 22.4-22.4 147.2 147.2 147.2-147.2 22.4 22.4-147.2 147.2z" />
<glyph unicode="&#xe622;" glyph-name="down" d="M427 213.333l-171-171-171 171 31 30 119-119v260h42v-260l120 119z" />
<glyph unicode="&#xe623;" glyph-name="left" d="M427 234.333v-42h-260l119-120-30-30-171 171 171 171 30-30-119-120h260z" />
<glyph unicode="&#xe624;" glyph-name="top" d="M85 213.333l171 171 171-171-31-30-119 119v-260h-42v260l-120-119z" />
<glyph unicode="&#xe625;" glyph-name="right" d="M256 384.333l171-171-171-171-30 30 119 120h-260v42h260l-119 120z" />
<glyph unicode="&#xe626;" glyph-name="exit" d="M347.2 224.533l-128 128c-6.4 6.4-16 6.4-22.4 0s-6.4-16 0-22.4l100.8-100.8h-265.6c-9.6 0-16-6.4-16-16s6.4-16 16-16h265.6l-100.8-100.8c-6.4-6.4-6.4-16 0-22.4 3.2-3.2 8-4.8 11.2-4.8s8 1.6 11.2 4.8l128 128c6.4 6.4 6.4 16 0 22.4zM480 453.333h-176c-9.6 0-16-6.4-16-16s6.4-16 16-16h160v-416h-160c-9.6 0-16-6.4-16-16s6.4-16 16-16h176c9.6 0 16 6.4 16 16v448c0 9.6-6.4 16-16 16z" />
<glyph unicode="&#xe627;" glyph-name="refresh1" d="M345.6 123.733l-44.8 44.8h119.466v-121.6l-44.8 44.8c-32-32-72.534-49.067-119.466-49.067s-87.466 17.067-121.6 49.067c-23.466 23.466-38.4 51.2-44.8 83.2h44.8c6.4-19.2 17.066-38.4 32-53.334 23.466-23.466 53.333-36.267 89.6-36.267s66.134 12.8 89.6 38.4zM134.4 334.933c34.133 32 74.667 49.066 121.6 49.066s87.466-17.067 121.6-49.066c23.466-23.466 38.4-51.2 44.8-83.2h-44.8c-6.4 19.2-17.067 38.4-32 53.333-23.466 23.466-53.334 36.267-89.6 36.267s-66.133-12.8-89.6-38.4l44.8-44.8h-121.6v121.6l44.8-44.8z" />
<glyph unicode="&#xe628;" glyph-name="again" d="M151.466 317.867c34.133 34.133 74.666 51.2 121.6 51.2s87.466-17.066 119.466-49.066c34.134-34.133 49.067-74.667 49.067-121.6s-17.067-87.466-49.067-121.6c-32-32-72.534-49.067-121.6-49.067-46.934 0-87.466 17.067-121.6 49.067l29.867 29.866c25.6-25.6 55.466-38.4 89.6-38.4s66.134 12.8 89.6 38.4c25.6 25.6 38.4 55.466 38.4 89.6s-12.8 66.134-38.4 89.6-55.466 38.4-89.6 38.4-66.133-12.8-89.6-38.4l61.867-61.867h-151.466v155.734l61.867-61.867z" />
<glyph unicode="&#xe629;" glyph-name="bell" d="M384 128.333l43-43v-21h-342v21l43 43v106q0 50 25.5 87t70.5 48v15q0 13 9 22.5t23 9.5 23-9.5 9-22.5v-15q45-11 70.5-48t25.5-87v-106zM256 0.333q-18 0-30.5 12.5t-12.5 29.5h86q0-17-13-29.5t-30-12.5z" />
<glyph unicode="&#xe62a;" glyph-name="nobell" d="M384 156.333l-191 201q3 1 8 3.5l7 3.5h1l6 3q1 0 4 1t5 1v15q0 13 9 22.5t23 9.5 23-9.5 9-22.5v-15q45-11 70.5-48t25.5-87v-78zM256 0.333q-18 0-30.5 12t-12.5 30h86q0-18-12.5-30t-30.5-12zM167 338.333q24-25 125.5-129t155.5-161l-27-27-43 43h-293v21l43 43v107q0 41 17 73l-60 59 27 28z" />
<glyph unicode="&#xe62b;" glyph-name="nolearn" d="M256 341.333c70.4 0 128-57.6 128-128s-57.6-128-128-128-128 57.6-128 128 57.6 128 128 128zM256 426.667c-117.334 0-213.333-96-213.333-213.334s96-213.333 213.333-213.333 213.333 96 213.333 213.334-96 213.333-213.333 213.333v0z" />
<glyph unicode="&#xe62c;" glyph-name="half" d="M256 426.667c-117.334 0-213.333-96-213.333-213.334s96-213.333 213.333-213.333 213.333 96 213.333 213.334-96 213.333-213.333 213.333zM128 213.333c0 70.4 57.6 128 128 128s128-57.6 128-128h-256z" />
<glyph unicode="&#xe62d;" glyph-name="full" d="M213 106.333l192 192-30 31-162-162-76 76-30-30zM256 426.333c118 0 213-95 213-213s-95-213-213-213-213 95-213 213 95 213 213 213z" />
<glyph unicode="&#xe62e;" glyph-name="point-revert" d="M277 192.333v128h-42v-128h42zM277 106.333v43h-42v-43h42zM256 426.333c58.666 0 108.866-20.866 150.534-62.533s62.466-91.8 62.466-150.467-20.866-108.866-62.534-150.534-91.8-62.466-150.466-62.466-108.867 20.866-150.534 62.534-62.467 91.8-62.467 150.466 20.866 108.867 62.533 150.534 91.8 62.466 150.466 62.466z" />
<glyph unicode="&#xe62f;" glyph-name="ques-revert" d="M321.101 229.359c13.355 13.355 20.031 29.379 20.031 48.075 0 23.369-8.346 43.4-25.038 60.093s-36.724 25.038-60.093 25.038-43.4-8.346-60.093-25.038-25.038-36.723-25.038-60.093h42.066c0 11.351 4.34 21.365 13.020 30.046s18.696 13.020 30.046 13.020 21.365-4.34 30.046-13.020 13.020-18.695 13.020-30.046-4.34-21.365-13.020-30.046l-26.040-27.042c-16.692-18.028-25.038-38.059-25.038-60.093v-11.017h42.066c0 22.035 8.346 42.066 25.038 60.093l19.029 20.031zM277.033 64.103v42.066h-42.066v-42.066h42.066zM256 426.662c58.757 0 109.036-20.899 150.767-62.63s62.563-91.942 62.563-150.699-20.899-109.036-62.63-150.767-91.942-62.563-150.699-62.563-109.036 20.899-150.767 62.63-62.563 91.942-62.563 150.699 20.898 109.036 62.63 150.767 91.942 62.564 150.699 62.564z" />
<glyph unicode="&#xe630;" glyph-name="tick-revert" d="M212.934 106.167l192.297 192.297-30.046 31.048-162.25-162.25-76.117 76.117-30.046-30.046 106.165-107.166zM256 426.662c58.757 0 109.036-20.899 150.767-62.63s62.563-91.942 62.563-150.699-20.899-109.036-62.63-150.767-91.942-62.563-150.699-62.563-109.036 20.899-150.767 62.63-62.563 91.942-62.563 150.699 20.898 109.036 62.63 150.767 91.942 62.564 150.699 62.564z" />
<glyph unicode="&#xe631;" glyph-name="flag" d="M256 426.668c-117.334 0-213.335-96.001-213.335-213.335s96.001-213.335 213.335-213.335 213.335 96 213.335 213.335-96 213.335-213.335 213.335zM362.668 186.667h-160.001v-106.668h-26.667v240.002h186.668l-26.666-66.667 26.666-66.668z" />
<glyph unicode="&#xe632;" glyph-name="msg-revert" d="M256 426.668c-117.334 0-213.335-96.001-213.335-213.335s96.001-213.335 213.335-213.335 213.335 96 213.335 213.335-96 213.335-213.335 213.335zM362.668 173.333c0-14.666-12-26.666-26.666-26.666h-86.668l-60-66.668v66.668h-13.334c-14.666 0-26.666 12-26.666 26.666v93.334c0 14.666 12 26.667 26.666 26.667h160.001c14.666 0 26.666-12 26.666-26.667v-93.334z" />
<glyph unicode="&#xe633;" glyph-name="ad" d="M256 426.668c-117.334 0-213.335-96.001-213.335-213.335s96.001-213.335 213.335-213.335 213.335 96 213.335 213.335-96 213.335-213.335 213.335zM362.668 146.666l-53.334 12v-54.668l-133.334 33.334v49.334h-53.334v80h53.334l186.668 40v-160.002zM282.666 163.999l-80 17.334v-24l80-20z" />
<glyph unicode="&#xe634;" glyph-name="imooc1" d="M256 426.668c-117.334 0-213.335-96.001-213.335-213.335s96.001-213.335 213.335-213.335 213.335 96 213.335 213.335-96 213.335-213.335 213.335zM348 146.666c-4-36-24-77.334-77.334-114.668-2.666-1.334-5.334-4-6.666-5.334 0 0 0 0 0 0 1.334 1.334 4 4 5.334 5.334 10.666 9.334 18.666 22.666 24 36s8 26.666 8 41.334c0 14.666-2.666 28-8 40 0 0 0 0 0 0s-1.334-1.334-1.334-1.334c-8-6.666-18.666-12-29.334-12-2.666 0-6.666 0-9.334 1.334-22.666 5.334-38.667 26.666-38.667 52 0 6.666 1.334 13.334 4 20 0 0 0 0 0 0-18.666-18.666-29.334-45.334-29.334-76 0-17.334 4-34.667 10.666-49.334 4-8 9.334-16 14.666-22.666l2.666-4c-1.334 1.334-1.334 1.334-2.666 2.666-6.666 6.666-14.666 14.666-21.334 24-1.334 2.666-2.666 4-5.334 6.666-13.334 20-25.334 45.334-24 77.334 0 10.666 1.334 21.334 4 33.334 1.334 6.666 4 14.666 8 22.666 20 48 40 70.668 53.334 93.334 10.666 16 16 36 16 57.334 0 8-1.334 17.334-2.666 25.334 6.666-6.666 42.667-46.667 38.667-90.668-1.334-14.666-2.666-26.666-4-37.334 0-2.666 0-6.666-1.334-9.334 0 0 0-1.334 0-1.334 0-2.666 0-9.334 0-9.334 0-2.666 0-5.334 1.334-8 0-1.334 1.334-1.334 1.334-2.666 1.334-1.334 1.334-2.666 2.666-4 4-4 8-6.666 13.334-6.666 0 0 0 0 0 0 4 0 6.666 1.334 9.334 2.666 4 2.666 6.666 6.666 8 10.666 0 1.334 1.334 4 1.334 5.334 0 5.334-1.334 9.334-5.334 13.334 0 0 0 0 0 0s17.334-18.666 29.334-48c1.334-4 4-9.334 5.334-13.334 5.334-13.334 8-26.666 8-41.334-1.334-2.666-1.334-8-2.666-13.334z" />
<glyph unicode="&#xe635;" glyph-name="thumb" d="M460.8 282.133h-51.2c-65.6 4.8-102.4 68.8-110.4 118.4-8 40-35.2 68.8-91.2 68.8-48 0-88-52.8-80-100.8 8-49.6 25.6-86.4 25.6-86.4s-36.8 0-88 0c-51.2 0-70.4-43.2-62.4-76.8 6.4-33.6 38.4-176 44.8-204.8 4.8-28.8 27.2-43.2 57.6-43.2 0 0 0 0 0 0 1.6 0 3.2 0 3.2 0 35.2 0 315.2 0 316.8 0h33.6c28.8 0 51.2 22.4 51.2 51.2v222.4c1.6 27.2-22.4 51.2-49.6 51.2zM105.6-9.067v0c-22.4 0-25.6 11.2-25.6 16-3.2 11.2-9.6 43.2-17.6 78.4-11.2 49.6-22.4 105.6-27.2 126.4-1.6 9.6 0 19.2 4.8 25.6s12.8 9.6 24 9.6h142.4l-22.4 48c0 0-16 33.6-22.4 76.8-3.2 16 3.2 33.6 14.4 46.4 9.6 11.2 20.8 17.6 32 17.6 43.2 0 52.8-20.8 57.6-41.6 9.6-57.6 48-120 110.4-139.2v-262.4l-270.4-1.6zM476.8 16.533c0-14.4-11.2-25.6-25.6-25.6h-43.2v256h43.2c14.4 0 25.6-11.2 25.6-25.6v-204.8z" />
<glyph unicode="&#xe636;" glyph-name="thumb-revert" d="M491 256.333l-1-2h1v-41c0-6-1-11-3-16l-65-150c-6-15-21-26-39-26h-192c-23 0-43 20-43 43v213c0 12 5 22 13 30l140 141 23-23c6-6 9-13 9-22v-7l-21-98h135c23 0 43-19 43-42zM21 21.333v256h86v-256h-86z" />
<glyph unicode="&#xe637;" glyph-name="star" d="M510.4 275.733c-4.8 14.4-17.6 24-36.8 25.6l-124.8 19.2-57.6 121.6c-11.2 24-27.2 27.2-35.2 27.2s-24-3.2-35.2-27.2l-44.8-91.2c-3.2-6.4-1.6-12.8 3.2-17.6l124.8-123.2c19.2-19.2 19.2-49.6 0-67.2-17.6-17.6-49.6-17.6-67.2 0l-73.6 73.6c-6.4 6.4-6.4 16 0 22.4s16 6.4 22.4 0l76.8-76.8c6.4-6.4 16-6.4 22.4 0s6.4 16 0 22.4l-76.8 75.2c-19.2 19.2-49.6 19.2-67.2 0-19.2-19.2-19.2-49.6 0-67.2l76.8-76.8c1.6-1.6 1.6-1.6 3.2-1.6 14.4-11.2 32-19.2 51.2-19.2 20.8 0 41.6 8 56 24 30.4 30.4 30.4 81.6 0 113.6l-116.8 115.2 38.4 81.6c3.2 6.4 6.4 9.6 6.4 9.6s3.2-3.2 6.4-9.6l60.8-129.6c1.6-4.8 6.4-8 12.8-9.6l132.8-20.8c8-1.6 11.2-3.2 11.2-4.8s0-4.8-6.4-11.2l-97.6-99.2c-3.2-3.2-4.8-8-4.8-14.4l22.4-142.4c1.6-8 0-11.2 0-11.2s-4.8 0-11.2 3.2l-120 65.6c-4.8 3.2-11.2 3.2-16 0l-118.4-64c-6.4-3.2-11.2-3.2-11.2-3.2s-1.6 4.8 0 11.2l22.4 142.4c1.6 4.8 0 9.6-4.8 14.4l-97.6 99.2c-4.8 6.4-4.8 9.6-4.8 11.2s3.2 3.2 11.2 4.8l100.8 14.4c8 1.6 14.4 9.6 12.8 17.6-1.6 9.6-9.6 16-17.6 14.4l-99.2-14.4c-19.2-3.2-32-12.8-36.8-27.2s0-30.4 14.4-43.2l91.2-94.4-24-132.8c-4.8-25.6 6.4-38.4 14.4-43.2 3.2-3.2 9.6-6.4 19.2-6.4 6.4 0 16 1.6 25.6 8l112 62.4 112-62.4c22.4-12.8 38.4-6.4 44.8-1.6s17.6 17.6 14.4 43.2l-22.4 134.4 91.2 94.4c14.4 12.8 19.2 28.8 14.4 41.6z" />
<glyph unicode="&#xe638;" glyph-name="star-revert" d="M510.4 275.733c-4.8 14.4-17.6 24-36.8 25.6l-124.8 19.2-57.6 121.6c-11.2 24-27.2 27.2-35.2 27.2s-24-3.2-35.2-27.2l-33.6-72 139.2-139.2c32-32 32-81.6 0-113.6-14.4-14.4-35.2-24-56-24-19.2 0-36.8 6.4-51.2 19.2-1.6 0-1.6 1.6-3.2 1.6l-76.8 76.8c-19.2 19.2-19.2 49.6 0 67.2 19.2 19.2 49.6 19.2 67.2 0l76.8-76.8c6.4-6.4 6.4-16 0-22.4s-16-6.4-22.4 0l-76.8 76.8c-6.4 6.4-16 6.4-22.4 0s-6.4-16 0-22.4l73.6-73.6c17.6-17.6 49.6-17.6 67.2 0 19.2 19.2 19.2 49.6 0 67.2l-131.2 131.2-8-17.6-124.8-19.2c-19.2-3.2-32-12.8-36.8-27.2s0-30.4 14.4-43.2l91.2-94.4-22.4-131.2c-3.2-19.2 3.2-32 8-38.4 11.2-12.8 30.4-14.4 51.2-3.2l112 62.4 112-62.4c9.6-4.8 17.6-8 25.6-8v0c9.6 0 19.2 3.2 25.6 11.2 4.8 6.4 11.2 17.6 8 38.4l-22.4 134.4 91.2 94.4c14.4 12.8 19.2 28.8 14.4 41.6z" />
<glyph unicode="&#xe639;" glyph-name="heart" d="M352 366.933c42.666 0 74.666-32 74.666-74.666 0-59.734-64-121.6-168.534-213.334v0 0 0 0c-108.8 91.733-172.8 153.6-172.8 213.334 0 42.667 32 74.666 74.666 74.666 23.466 0 46.934-10.666 64-29.866l32-38.4 32 38.4c17.067 19.2 40.534 29.867 64 29.867zM352 409.6c-36.267 0-72.534-17.067-96-44.8-23.466 27.733-59.733 44.8-96 44.8-66.133 0-117.334-51.2-117.334-117.333 0-81.067 72.534-147.2 183.466-245.334l29.867-29.866 29.867 29.866c110.933 98.134 183.466 164.267 183.466 245.334 0 66.134-51.2 117.333-117.334 117.333v0z" />
<glyph unicode="&#xe63a;" glyph-name="heart-revert" d="M256 17.067l-29.867 29.866c-110.933 98.133-183.466 164.267-183.466 245.334 0 66.133 51.2 117.334 117.333 117.334 36.267 0 72.534-17.067 96-44.8 23.466 27.733 59.733 44.8 96 44.8 66.134 0 117.334-51.2 117.334-117.334 0-81.067-72.534-147.2-183.466-245.334l-29.866-29.866z" />
<glyph unicode="&#xe63b;" glyph-name="qq" d="M256 426.667c-117.334 0-213.333-96-213.333-213.334s96-213.333 213.333-213.333 213.333 96 213.333 213.334-96 213.333-213.333 213.333zM364.8 138.667c0 0-4.267-4.267-17.067 19.2-6.4-14.933-14.933-27.733-27.733-36.267 14.933-4.267 23.466-10.666 23.466-17.067 0-10.666-17.067-21.334-42.666-21.334-23.466 0-40.534 8.534-44.8 17.067-2.133 0-2.133 0-4.267 0-4.267-10.666-21.334-17.067-42.666-17.067-25.6 0-46.934 8.534-46.934 17.067 0 2.134 2.133 4.267 2.133 6.4 4.267 8.534 10.666 10.666 23.466 14.933-10.666 8.534-21.334 21.334-25.6 36.267-10.667-25.6-17.066-19.2-17.066-19.2-19.2 27.733 4.267 64 10.666 72.534 0 0 0 17.067 10.666 29.867 0 2.133 0 2.133 0 2.133 2.133 70.4 49.066 98.133 89.6 98.133 46.934 0 91.734-29.867 87.467-98.133 0 0 10.666-21.334 8.534-29.867 0 0 0 0 0 0s0 0 0 0c8.534-8.534 32-44.8 12.8-74.667z" />
<glyph unicode="&#xe63c;" glyph-name="weibo1" d="M232.534 174.933c-2.133 2.134-6.4 0-8.534-2.134s0-6.4 2.133-6.4c2.133-2.134 6.4 0 8.534 2.134s0 6.4-2.133 6.4zM219.733 228.267c-49.066-6.4-85.334-36.267-83.2-68.267s46.934-55.466 96-51.2c51.2 6.4 87.466 36.267 83.2 68.267-2.134 34.134-46.933 55.467-96 51.2zM264.534 151.467c-8.534-23.466-38.4-36.267-64-27.733-23.466 8.534-34.133 32-23.466 53.334 8.534 21.334 36.267 32 59.733 25.6 25.6-6.4 36.267-29.866 27.733-51.2zM213.333 168.533c-6.4 2.134-17.066-2.134-21.333-8.534-4.267-8.534-2.133-17.067 6.4-21.334s17.066-2.134 23.466 6.4c2.133 10.666-2.133 21.334-8.534 23.466zM256 426.667c-117.334 0-213.333-96-213.333-213.334s96-213.333 213.333-213.333 213.333 96 213.333 213.334-96 213.333-213.333 213.333zM232.534 91.733c-61.867 0-125.867 29.866-125.867 78.933 0 25.6 17.067 55.467 44.8 85.334 38.4 38.4 81.067 53.334 98.133 38.4 6.4-8.534 6.4-21.334 2.133-36.267-2.133-8.534 6.4-4.267 6.4-4.267 29.866 12.8 57.6 12.8 66.133 0 6.4-8.534 6.4-17.066 0-29.867-2.134-6.4 2.134-6.4 6.4-8.534 17.067-6.4 36.267-17.067 36.267-42.666 0-34.134-53.334-81.067-134.4-81.067zM339.2 266.667c-4.267 6.4-10.666 6.4-17.067 6.4s-10.666 2.134-12.8 8.534c-2.134 6.4 2.134 10.667 8.534 12.8 12.8 2.133 27.733-2.134 36.267-12.8s12.8-25.6 8.534-38.4c-2.134-6.4-6.4-8.534-12.8-6.4s-8.534 8.534-6.4 12.8c2.134 6.4 0 12.8-4.267 17.066zM403.2 228.267c-2.134-6.4-8.534-8.534-14.933-6.4s-8.534 8.534-6.4 14.934c6.4 19.2 2.134 40.534-12.8 55.466-12.8 17.067-34.134 21.333-53.334 17.067-6.4-2.134-12.8 2.133-12.8 8.534-2.134 6.4 2.134 12.8 8.534 12.8 25.6 6.4 55.466-2.133 74.666-23.466 17.067-21.333 23.466-51.2 17.067-78.933z" />
<glyph unicode="&#xe63d;" glyph-name="qqweibo" d="M256 426.663c-118.302 0-213.33-95.029-213.33-213.33s95.028-213.33 213.33-213.33 213.33 95.029 213.33 213.33-95.029 213.33-213.33 213.33zM205.576 75.638c0-5.817-3.879-17.455-7.757-17.455v0c-3.879 0-7.757 11.635-7.757 15.515-5.817 71.757 15.516 131.877 36.847 160.968 7.757 11.636 15.516 19.394 21.334 27.151-1.94 3.878-1.94 7.757-1.94 13.575 0 17.455 13.575 31.030 32.969 31.030 17.455 0 32.969-13.575 32.969-31.030s-13.575-31.030-32.969-31.030c-7.757 0-13.575 1.94-17.455 5.817-5.817-5.817-13.576-19.394-19.394-27.151-31.030-42.666-40.726-95.029-36.847-147.392zM275.394 176.486c-7.757 0-15.515 0-21.334 1.94-3.879 1.94-7.757 5.817-5.817 9.696s5.817 7.757 9.696 5.817c5.817 0 11.635 0 17.455 0 44.606 0 79.514 34.908 79.514 79.515 0 42.666-34.908 79.514-79.514 79.514s-79.514-34.908-79.514-79.514c0-13.576 3.879-25.212 9.696-36.848 1.94-3.879 0-9.696-3.879-11.636s-9.696 0-11.636 3.879c-7.757 13.576-11.636 29.091-11.636 44.606 0 52.364 42.666 95.029 96.968 95.029s96.967-42.666 96.967-95.029c0-52.364-42.666-96.968-96.967-96.968z" />
<glyph unicode="&#xe63e;" glyph-name="weixin" d="M283.733 213.333c-8.534 0-12.8-6.4-12.8-12.8s6.4-12.8 12.8-12.8c8.534 0 12.8 6.4 12.8 12.8s-4.267 12.8-12.8 12.8zM174.934 294.4c-8.534 0-12.8-6.4-12.8-12.8s6.4-12.8 12.8-12.8 12.8 6.4 12.8 12.8-4.267 12.8-12.8 12.8zM256 266.667c8.534 0 12.8 6.4 12.8 12.8s-4.267 14.934-12.8 14.934-12.8-6.4-12.8-12.8 4.267-14.933 12.8-14.933zM352 213.333c-8.534 0-12.8-6.4-12.8-12.8s6.4-12.8 12.8-12.8c8.534 0 12.8 6.4 12.8 12.8s-6.4 12.8-12.8 12.8zM256 426.667c-117.334 0-213.333-96-213.333-213.334s96-213.333 213.333-213.333 213.333 96 213.333 213.334-96 213.333-213.333 213.333zM215.466 145.067c-14.934 0-27.733 2.134-40.534 6.4l-40.534-21.334 8.534 40.534c-23.466 17.067-36.267 42.666-36.267 70.4 0 53.333 49.066 96 108.8 96 51.2 0 91.733-27.733 104.534-68.266-2.134 0-2.134 0-2.134 0-55.466 0-102.4-38.4-102.4-87.467 0-12.8 2.133-23.466 8.534-34.134-4.267-2.134-6.4-2.134-8.534-2.134zM392.534 91.733l-38.4 21.334c-10.666-4.267-23.466-6.4-36.267-6.4-49.067 0-87.466 34.133-87.466 74.666s38.4 74.667 87.466 74.667 87.466-34.133 87.466-74.667c0-19.2-8.534-36.267-23.466-51.2l10.666-38.4z" />
<glyph unicode="&#xe63f;" glyph-name="folder1" d="M213 384.333l43-43h171q17 0 29.5-13t12.5-30v-213q0-17-12.5-30t-29.5-13h-342q-17 0-29.5 13t-12.5 30v256q0 17 12.5 30t29.5 13h128z" />
<glyph unicode="&#xe640;" glyph-name="jian" d="M0 469.333v-512h512v512h-512zM448 110.933h-96v-41.6c1.6-28.8-14.4-44.8-46.4-44.8-16 0-36.8 0-64 0-1.6 4.8-3.2 12.8-6.4 25.6-1.6 4.8-1.6 9.6-3.2 12.8 14.4-1.6 32-1.6 52.8-1.6 17.6-1.6 27.2 4.8 25.6 19.2v30.4h-121.6v38.4h121.6v9.6l54.4 35.2h-150.4v33.6h209.6v-32l-72-46.4h96v-38.4zM448 338.133h-94.4v-25.6h-41.6v25.6h-100.8v-22.4l24-1.6-8-20.8h217.6v-35.2h-238.4c-11.2-19.2-22.4-38.4-36.8-56v-180.8h-41.6v134.4c-14.4-14.4-30.4-30.4-49.6-46.4-1.6 6.4-4.8 17.6-9.6 32-1.6 4.8-3.2 9.6-4.8 12.8 36.8 28.8 68.8 64 96 105.6h-84.8v33.6h105.6c3.2 6.4 6.4 12.8 9.6 19.2h-20.8v25.6h-96v36.8h96v30.4h43.2v-30.4h100.8v30.4h41.6v-30.4h92.8v-36.8z" />
<glyph unicode="&#xe641;" glyph-name="ding" d="M0 469.333v-512h512v512h-512zM209.6 405.333h235.2v-38.4h-104l-9.6-46.4h97.6v-200h-40v160h-132.8v-163.2h-40v203.2h70.4l9.6 46.4h-86.4v38.4zM160 85.333c1.6-32-14.4-48-46.4-48-11.2-1.6-24-1.6-38.4-1.6-1.6 17.6-4.8 32-8 41.6 8-1.6 17.6-1.6 32-1.6 14.4-1.6 20.8 6.4 19.2 22.4v259.2h-54.4v41.6h134.4v-41.6h-38.4v-272zM420.8 26.133c-17.6 16-51.2 43.2-99.2 80-16-32-56-59.2-118.4-84.8-6.4 12.8-14.4 27.2-22.4 40 51.2 16 83.2 35.2 97.6 54.4 16 17.6 24 48 24 91.2l1.6 49.6h40l-1.6-48c0-24-1.6-44.8-6.4-62.4 11.2-8 27.2-20.8 51.2-38.4 30.4-24 49.6-38.4 62.4-44.8l-28.8-36.8z" />
<glyph unicode="&#xe642;" glyph-name="you" d="M0 469.333v-512h512v512h-512zM360 408.533c24-16 46.4-33.6 65.6-51.2l-30.4-33.6c-22.4 19.2-44.8 38.4-65.6 54.4l30.4 30.4zM144 6.933h-44.8v220.8c-14.4-19.2-27.2-38.4-41.6-57.6-3.2 24-6.4 44.8-9.6 62.4 38.4 57.6 68.8 120 91.2 188.8l46.4-16c-12.8-33.6-25.6-65.6-41.6-97.6v-300.8zM187.2 5.333c-11.2 11.2-24 24-35.2 36.8 64 59.2 96 134.4 97.6 224h-78.4v44.8h81.6c1.6 35.2 1.6 72 1.6 107.2h46.4c0-14.4 0-33.6-1.6-59.2 0-22.4 0-38.4 0-48h155.2v-44.8h-160c-1.6-105.6-38.4-192-107.2-260.8zM454.4 64.533c-6.4-30.4-25.6-44.8-57.6-44.8h-33.6c-36.8-1.6-54.4 16-52.8 52.8v188.8h46.4v-179.2c-1.6-14.4 4.8-22.4 19.2-20.8h17.6c14.4 0 22.4 8 24 24 0 1.6 0 6.4 1.6 12.8 1.6 24 3.2 41.6 4.8 56 3.2-1.6 9.6-3.2 17.6-6.4 12.8-3.2 20.8-6.4 25.6-8-6.4-30.4-9.6-56-12.8-75.2z" />
<glyph unicode="&#xe643;" glyph-name="apple" d="M395.2 197.333c0 65.6 52.8 96 54.4 97.6-30.4 44.8-76.8 49.6-92.8 51.2-40 4.8-78.4-24-97.6-24-20.8 0-51.2 22.4-84.8 22.4-43.2 0-83.2-25.6-105.6-64-44.8-78.4-11.2-195.2 32-257.6 20.8-30.4 46.4-65.6 80-64 32 1.6 44.8 20.8 83.2 20.8s49.6-20.8 84.8-20.8c35.2 0 57.6 32 78.4 62.4 24 36.8 35.2 70.4 35.2 73.6 1.6-1.6-65.6 25.6-67.2 102.4zM331.2 387.733c17.6 22.4 30.4 51.2 27.2 81.6-25.6-1.6-57.6-17.6-75.2-38.4-16-19.2-30.4-49.6-27.2-80 27.2-1.6 57.6 14.4 75.2 36.8z" />
<glyph unicode="&#xe644;" glyph-name="android" d="M448 309.333c-17.6 0-32-14.4-32-32v-128c0-17.6 14.4-32 32-32s32 14.4 32 32v128c0 17.6-14.4 32-32 32zM64 309.333c-17.6 0-32-14.4-32-32v-128c0-17.6 14.4-32 32-32s32 14.4 32 32v128c0 17.6-14.4 32-32 32zM112 101.333c0-27.2 20.8-48 48-48h16v-64c0-17.6 14.4-32 32-32s32 14.4 32 32v64h32v-64c0-17.6 14.4-32 32-32s32 14.4 32 32v64h16c27.2 0 48 20.8 48 48v176h-288v-176zM315.2 424.533l20.8 38.4c0 3.2 0 4.8-1.6 6.4s-4.8 0-4.8-1.6l-20.8-40c-17.6 6.4-35.2 9.6-52.8 9.6s-35.2-3.2-51.2-9.6l-20.8 40c-1.6 1.6-3.2 1.6-6.4 1.6-1.6-1.6-1.6-3.2-1.6-6.4l20.8-38.4c-44.8-20.8-78.4-64-83.2-115.2h286.4c-6.4 51.2-40 94.4-84.8 115.2zM192 333.333c-12.8 0-24 9.6-24 24s9.6 24 24 24 24-9.6 24-24-11.2-24-24-24zM320 333.333c-12.8 0-24 9.6-24 24s9.6 24 24 24 24-9.6 24-24-11.2-24-24-24z" />
<glyph unicode="&#xe645;" glyph-name="share-weibo" d="M373.334 219.733c-6.4 2.133-10.666 4.267-8.534 12.8 8.534 19.2 8.534 34.133 0 46.934-14.933 21.333-57.6 21.333-104.534 0 0 0-14.934-6.4-10.666 6.4 6.4 23.466 6.4 42.667-4.267 55.466-25.6 25.6-93.867 0-153.6-59.733-44.8-46.934-70.4-93.867-70.4-134.4 0-76.8 100.266-125.867 196.267-125.867 128 0 213.333 74.666 213.333 132.267 0 38.4-29.866 57.6-57.6 66.134zM217.6 51.2c-76.8-8.534-145.066 27.733-149.333 78.933s53.334 98.134 132.267 106.667c76.8 8.534 145.067-27.734 149.333-78.934s-53.334-98.133-132.267-106.666zM458.666 362.667c-29.866 34.134-76.8 46.933-117.334 38.4v0c-10.666-2.133-14.933-10.666-12.8-21.333s10.666-14.933 21.334-12.8c29.866 6.4 61.866-2.133 83.2-27.733 21.334-23.466 27.733-57.6 19.2-87.466v0c-2.134-8.534 2.134-19.2 10.666-23.466 8.534-2.133 19.2 2.133 23.466 10.667 0 0 0 0 0 0 10.666 42.666 2.134 89.6-27.733 123.733zM405.334 249.6c8.534-2.133 17.067 2.133 19.2 10.667 6.4 19.2 2.134 42.666-12.8 59.733s-36.267 23.466-57.6 19.2c-8.534-2.134-14.933-10.667-12.8-19.2s10.666-12.8 19.2-12.8v0c10.666 2.133 21.334 0 27.733-8.534s8.534-19.2 6.4-29.867v0c-2.134-6.4 2.134-14.934 10.666-19.2zM226.133 196.267c-36.267 10.666-78.934-8.534-93.867-40.534-17.067-34.134 0-70.4 36.267-83.2 38.4-12.8 85.334 6.4 100.267 42.666s-4.267 70.4-42.666 81.067zM198.4 110.933c-8.534-12.8-23.466-17.067-36.267-10.666s-14.934 19.2-8.534 32c6.4 10.666 23.466 17.067 34.133 12.8 12.8-6.4 17.066-21.334 10.666-34.134zM221.867 142.933c-2.133-4.267-8.534-6.4-12.8-4.267s-6.4 6.4-4.267 10.666c2.133 4.267 8.534 6.4 12.8 4.267 6.4 0 8.534-6.4 4.267-10.666z" />
<glyph unicode="&#xe646;" glyph-name="share-weichat" d="M490.666 160c0 64-61.867 117.334-138.666 117.334s-138.667-53.334-138.667-117.334 61.867-117.334 138.667-117.334c19.2 0 38.4 4.267 55.466 10.666l61.866-32-14.933 59.733c23.466 21.334 36.267 49.067 36.267 78.933zM298.666 170.667c-12.8 0-21.334 8.534-21.334 21.334s8.534 21.334 21.334 21.334 21.334-8.534 21.334-21.334-8.534-21.334-21.334-21.334zM405.334 170.667c-12.8 0-21.334 8.534-21.334 21.334s8.534 21.334 21.334 21.334 21.334-8.534 21.334-21.334-8.534-21.334-21.334-21.334zM352 298.667c2.134 0 2.134 0 4.267 0-21.334 61.866-85.334 106.666-164.267 106.666-93.867 0-170.667-66.133-170.667-149.333 0-44.8 21.334-83.2 57.6-110.934l-14.934-59.733 64 32c19.2-6.4 40.534-10.666 64-10.666 4.267 0 8.534 0 12.8 0-8.534 17.067-12.8 34.133-12.8 53.334 0 76.8 72.534 138.667 160 138.667zM256 341.333c12.8 0 21.334-8.534 21.334-21.334s-8.534-21.333-21.334-21.333-21.334 8.534-21.334 21.333 8.534 21.334 21.334 21.334zM128 298.667c-12.8 0-21.334 8.534-21.334 21.333s8.534 21.334 21.334 21.334 21.334-8.533 21.334-21.334-8.534-21.333-21.334-21.333z" />
<glyph unicode="&#xe647;" glyph-name="share-qq" d="M416 213.333c2.134 2.134 2.134 2.134 0 0 2.134 12.8-14.933 49.067-14.933 49.067v0 0c8.534 115.2-68.267 164.267-145.067 164.267-68.267 0-145.066-46.933-142.934-160v0c0 0 0 0 0-2.134v0c-19.2-21.333-19.2-49.066-19.2-49.066v0c-10.666-14.934-51.2-74.667-19.2-121.6 0 0 10.666-10.666 29.867 32v0c8.534-25.6 23.466-46.933 42.667-61.866-21.334-4.267-34.133-10.666-40.534-23.466-2.133-4.267-4.266-6.4-4.266-10.666 2.133-17.067 36.266-29.866 78.933-29.866 34.133 0 61.867 10.666 70.4 27.733 2.133 0 4.267 0 6.4 0v0c6.4-14.933 36.267-27.733 74.666-27.733 42.666 0 72.534 17.067 72.534 34.133v0 0c0 10.666-14.933 21.334-40.534 27.733 19.2 14.933 34.134 34.133 44.8 59.733 21.334-38.4 29.866-32 29.866-32 29.866 49.067-8.534 108.8-23.466 123.733v0z" />
<glyph unicode="&#xe648;" glyph-name="show-pw" d="M448 149.333c-12.8 0-21.334 8.534-21.334 21.334 0 93.867-76.8 170.667-170.667 170.667s-170.667-76.8-170.667-170.667c0-12.8-8.534-21.334-21.334-21.334s-21.334 8.534-21.334 21.334c0 117.334 96 213.334 213.333 213.334s213.334-96 213.334-213.334c0-12.8-8.534-21.334-21.334-21.334zM256 213.333c23.466 0 42.666-19.2 42.666-42.666s-19.2-42.666-42.666-42.666-42.666 19.2-42.666 42.666 19.2 42.666 42.666 42.666zM256 256c-46.934 0-85.334-38.4-85.334-85.334s38.4-85.334 85.334-85.334 85.334 38.4 85.334 85.334-38.4 85.334-85.334 85.334v0z" />
<glyph unicode="&#xe649;" glyph-name="event_busy" d="M405 64.333v234h-298v-234h298zM405 405.333c23 0 43-20 43-43v-298c0-23-20-43-43-43h-298c-24 0-43 20-43 43v298c0 23 19 43 43 43h21v43h43v-43h170v43h43v-43h21zM199 106.333l-23 23 52 52-52 52 23 23 52-52 52 52 22-23-52-52 52-52-22-23-52 52z" />
<glyph unicode="&#xe64a;" glyph-name="error" d="M256 426.667c-117.76 0-213.333-95.466-213.333-213.334s95.573-213.333 213.333-213.333 213.333 95.466 213.333 213.334-95.573 213.333-213.333 213.333zM277.334 106.667h-42.666v42.666h42.666v-42.666zM277.334 192h-42.666v128h42.666v-128z" />
<glyph unicode="&#xe64b;" glyph-name="done" d="M256 426.667c-117.334 0-213.333-96-213.333-213.334s96-213.333 213.333-213.333 213.333 96 213.333 213.334-96 213.333-213.333 213.333zM213.333 106.667l-106.666 106.666 29.866 29.867 76.8-76.8 162.134 162.134 29.866-29.867-192-192z" />
<glyph unicode="&#xe64c;" glyph-name="close11" d="M405.334 332.48l-30.187 30.187-119.147-119.147-119.147 119.147-30.186-30.187 119.147-119.147-119.147-119.147 30.186-30.187 119.147 119.147 119.147-119.147 30.187 30.187-119.147 119.147z" />
<glyph unicode="&#xe64d;" glyph-name="help1" d="M256 426.667c-117.867 0-213.333-95.466-213.333-213.334s95.466-213.333 213.333-213.333 213.333 95.466 213.333 213.334-95.466 213.333-213.333 213.333zM277.334 64h-42.666v42.666h42.666v-42.666zM321.387 229.227l-19.094-19.627c-15.36-15.36-24.96-28.267-24.96-60.267h-42.666v10.666c0 23.574 9.6 44.906 24.96 60.374l26.56 26.88c7.68 7.68 12.48 18.346 12.48 30.080 0 23.573-19.094 42.666-42.666 42.666s-42.666-19.093-42.666-42.666h-42.666c0 47.146 38.186 85.333 85.334 85.333s85.334-38.187 85.334-85.333c0-18.774-7.574-35.734-19.947-48.107z" />
<glyph unicode="&#xe64e;" glyph-name="event" d="M256 426.667c-117.867 0-213.333-95.466-213.333-213.334 0-117.76 95.466-213.333 213.333-213.333s213.333 95.573 213.333 213.334c0 117.866-95.466 213.333-213.333 213.333zM170.667 96c-29.44 0-53.334 23.894-53.334 53.334s23.894 53.334 53.334 53.334 53.333-23.894 53.333-53.334-23.893-53.334-53.334-53.334zM202.667 298.667c0 29.44 23.893 53.333 53.333 53.333s53.334-23.893 53.334-53.333-23.894-53.333-53.334-53.333-53.334 23.893-53.334 53.333zM341.334 96c-29.44 0-53.334 23.894-53.334 53.334s23.894 53.334 53.334 53.334 53.334-23.894 53.334-53.334-23.894-53.334-53.334-53.334z" />
<glyph unicode="&#xe64f;" glyph-name="answer" d="M266.666 426.667c-100.267 0-181.333-78.933-181.333-177.066s81.066-177.066 181.333-177.066h10.666v-72.534c104.534 46.933 170.667 155.733 170.667 249.6 0 98.133-81.067 177.066-181.333 177.066zM256 238.933l-21.334-42.667h-32l21.334 42.667h-32v61.867h64v-61.867zM341.334 238.933l-21.334-42.667h-32l21.334 42.667h-32v61.867h64v-61.867z" />
<glyph unicode="&#xe650;" glyph-name="thumb1" d="M21.334 21.333h85.334v256h-85.334v-256zM490.666 256c0 23.574-19.094 42.666-42.666 42.666h-134.72l20.373 97.494c0.426 2.133 0.747 4.373 0.747 6.72 0 8.853-3.627 16.853-9.387 22.613l-22.72 22.507-140.48-140.48c-7.68-7.787-12.48-18.454-12.48-30.187v-213.334c0-23.574 19.094-42.666 42.666-42.666h192c17.707 0 32.853 10.774 39.254 26.026l64.32 150.4c1.92 4.906 3.094 10.134 3.094 15.574v40.853l-0.214 0.214 0.214 1.6z" />
<glyph unicode="&#xe651;" glyph-name="thumb-o" d="M285.866 371.2l-12.8-61.866-12.8-53.334h187.733v-40.534l-64-151.466h-192v213.334l93.867 93.867zM302.933 448l-140.8-140.8c-8.534-8.534-12.8-19.2-12.8-29.867v-213.334c0-23.466 19.2-42.666 42.666-42.666h192c17.067 0 32 10.666 38.4 25.6l64 151.466c2.134 4.267 4.267 8.534 4.267 14.934v42.667c0 23.467-19.2 42.666-42.666 42.666h-134.4l21.334 98.134c0 2.134 0 4.266 0 6.4 0 8.534-4.267 17.067-8.534 23.466l-23.466 21.334zM21.334 277.333h85.334v-256h-85.334v256z" />
<glyph unicode="&#xe652;" glyph-name="imooc11" d="M256 469.333c-140.8 0-256-115.2-256-256s115.2-256 256-256 256 115.2 256 256-115.2 256-256 256zM366.4 133.333c-4.8-43.2-28.8-92.8-92.8-137.6-3.2-1.6-6.4-4.8-8-6.4 0 0 0 0 0 0 1.6 1.6 4.8 4.8 6.4 6.4 12.8 11.2 22.4 27.2 28.8 43.2s9.6 32 9.6 49.6c0 17.6-3.2 33.6-9.6 48 0 0 0 0 0 0s-1.6-1.6-1.6-1.6c-9.6-8-22.4-14.4-35.2-14.4-3.2 0-8 0-11.2 1.6-27.2 6.4-46.4 32-46.4 62.4 0 8 1.6 16 4.8 24 0 0 0 0 0 0-22.4-22.4-35.2-54.4-35.2-91.2 0-20.8 4.8-41.6 12.8-59.2 4.8-9.6 11.2-19.2 17.6-27.2l3.2-4.8c-1.6 1.6-1.6 1.6-3.2 3.2-8 8-17.6 17.6-25.6 28.8-1.6 3.2-3.2 4.8-6.4 8-16 24-30.4 54.4-28.8 92.8 0 12.8 1.6 25.6 4.8 40 1.6 8 4.8 17.6 9.6 27.2 24 57.6 48 84.8 64 112 12.8 19.2 19.2 43.2 19.2 68.8 0 9.6-1.6 20.8-3.2 30.4 8-8 51.2-56 46.4-108.8-1.6-17.6-3.2-32-4.8-44.8 0-3.2 0-8-1.6-11.2 0 0 0-1.6 0-1.6 0-3.2 0-11.2 0-11.2 0-3.2 0-6.4 1.6-9.6 0-1.6 1.6-1.6 1.6-3.2 1.6-1.6 1.6-3.2 3.2-4.8 4.8-4.8 9.6-8 16-8 0 0 0 0 0 0 4.8 0 8 1.6 11.2 3.2 4.8 3.2 8 8 9.6 12.8 0 1.6 1.6 4.8 1.6 6.4 0 6.4-1.6 11.2-6.4 16 0 0 0 0 0 0s20.8-22.4 35.2-57.6c1.6-4.8 4.8-11.2 6.4-16 6.4-16 9.6-32 9.6-49.6-1.6-3.2-1.6-9.6-3.2-16z" />
<glyph unicode="&#xe653;" glyph-name="weibo11" d="M379.733 219.733c-19.2 4.267-10.666 14.934-10.666 14.934s19.2 34.133-4.267 57.6c-29.866 29.866-100.267-4.267-100.267-4.267-27.733-8.534-19.2 4.267-14.934 25.6 0 25.6-8.534 68.267-78.934 42.667s-132.267-115.2-132.267-115.2c-42.666-59.734-36.267-104.534-36.267-104.534 10.666-100.267 113.067-130.133 194.133-136.534 85.333-6.4 198.4 29.866 232.533 106.666s-29.866 108.8-49.067 113.067zM200.534 29.867c-83.2-4.267-151.466 40.534-151.466 98.134s68.266 104.534 151.466 108.8c83.2 4.267 151.466-32 151.466-89.6 0-59.733-68.267-113.067-151.466-117.334zM183.466 198.4c-85.334-10.666-74.666-91.733-74.666-91.733s0-25.6 23.467-38.4c49.066-27.733 100.267-10.666 125.867 23.466 25.6 32 10.666 117.334-74.666 106.666zM162.133 83.2c-14.934-2.134-27.733 8.534-27.733 21.334s10.667 27.733 27.733 29.866c17.066 2.134 29.867-10.666 29.867-23.466s-12.8-25.6-29.867-27.733zM213.333 125.867c-4.267-4.267-12.8-4.267-14.934 2.134-2.133 4.267-2.133 12.8 4.267 17.067 4.267 4.267 10.666 4.267 14.934-2.134 2.133-4.267 0-12.8-4.267-17.067zM420.267 253.867c6.4 0 12.8 4.266 12.8 12.8 0 0 0 0 0 2.134 10.666 96-76.8 78.933-76.8 78.933-8.534 0-12.8-6.4-12.8-14.933s6.4-14.933 12.8-14.933c64 14.933 49.067-49.067 49.067-49.067 0-8.534 6.4-14.934 14.933-14.934zM409.6 422.4c-29.866 6.4-59.733 0-68.267 0 0 0-2.134 0-2.134 0s0 0 0 0c-8.534-2.133-14.933-10.666-14.933-21.334s8.534-21.333 19.2-21.333c0 0 10.666 2.133 19.2 4.266 6.4 2.134 68.267 2.134 100.267-51.2 14.933-38.4 6.4-66.134 6.4-68.267 0 0-4.267-10.666-4.267-19.2 0-10.666 8.534-19.2 19.2-19.2 8.534 0 17.067 2.133 19.2 17.066v0c34.133 113.067-40.534 166.4-93.867 179.2z" />
<glyph unicode="&#xe654;" glyph-name="weixin11" d="M345.6 296.533c6.4 0 10.666 0 17.067-2.133-14.933 76.8-91.733 132.267-181.333 132.267-100.266 0-181.333-70.4-181.333-157.866 0-51.2 27.733-91.734 72.534-125.867l-17.067-55.466 64 32c23.467-4.267 40.533-8.534 64-8.534 6.4 0 10.666 0 17.066 0-6.4 12.8-8.534 25.6-8.534 40.534 0 81.067 68.266 145.067 153.6 145.067zM249.6 347.733c12.8 0 23.467-8.534 23.467-23.466s-8.534-23.466-23.466-23.466c-12.8 0-27.733 8.534-27.733 23.466s12.8 23.466 27.733 23.466zM121.6 300.8c-12.8 0-27.733 8.534-27.733 23.466s12.8 23.466 27.733 23.466c12.8 0 23.466-8.534 23.466-23.466 0-12.8-8.534-23.466-23.466-23.466zM512 153.6c0 74.667-72.534 134.4-153.6 134.4-85.334 0-153.6-59.733-153.6-134.4s68.266-134.4 153.6-134.4c17.067 0 36.267 4.267 53.334 8.534l49.067-27.733-12.8 46.933c36.267 27.733 64 64 64 106.666zM307.2 177.067c-8.534 0-17.067 8.534-17.067 19.2 0 8.534 8.534 19.2 17.067 19.2 12.8 0 23.466-8.534 23.466-19.2s-8.534-19.2-23.466-19.2zM407.466 177.067c-8.534 0-17.067 8.534-17.067 19.2 0 8.534 8.534 19.2 17.067 19.2 12.8 0 23.466-8.534 23.466-19.2s-8.534-19.2-23.466-19.2z" />
<glyph unicode="&#xe655;" glyph-name="qq11" d="M433.067 213.333c2.134 2.134 2.134 2.134 0 0 2.134 14.934-17.067 53.334-17.067 53.334s0 0 0 0 0 0 0 0c8.534 128-74.666 181.334-160 181.334-74.666 0-160-51.2-157.867-177.066 0 0 0 0 0 0s0 0 0-2.134c0 0 0 0 0 0-21.334-23.466-21.334-53.334-21.334-53.334s0 0 0 0c-12.8-17.067-55.467-81.067-21.334-134.4 0 0 10.666-10.666 32 34.134v0c10.666-25.6 27.733-49.067 49.066-66.134-23.466-4.267-38.4-12.8-44.8-25.6-2.133-4.267-4.266-6.4-4.266-10.666 2.133-19.2 40.534-34.133 87.466-34.133 38.4 0 68.267 12.8 76.8 29.866 2.133 0 4.267 0 6.4 0 0 0 0 0 0 0 6.4-17.067 40.534-29.866 83.2-29.866 46.933 0 78.933 19.2 78.933 38.4 0 0 0 0 0 0s0 0 0 0c0 12.8-17.067 23.466-44.8 29.866 21.334 17.067 38.4 38.4 49.067 66.134 23.466-42.666 32-34.134 32-34.134 34.133 53.334-8.534 117.334-23.466 134.4z" />
<glyph unicode="&#xe656;" glyph-name="delete1" d="M128 64c0-23.574 19.094-42.666 42.666-42.666h170.666c23.574 0 42.666 19.094 42.666 42.666v256h-256v-256zM405.334 384h-74.666l-21.334 21.334h-106.666l-21.334-21.334h-74.666v-42.666h298.666v42.666z" />
<glyph unicode="&#xe657;" glyph-name="edit11" d="M42.666 102.4v-81.067h81.067l234.666 236.8-81.067 81.067-234.667-236.8zM420.267 320c8.534 8.534 8.534 21.334 0 29.867l-49.067 49.066c-8.534 8.534-21.334 8.534-29.866 0l-38.4-38.4 81.067-81.067 36.267 40.534zM234.667 64l-42.667-42.666h277.334v42.666h-234.667z" />
<glyph unicode="&#xe658;" glyph-name="folder11" d="M213.333 384h-128c-23.573 0-42.453-19.093-42.453-42.666l-0.214-256c0-23.574 19.093-42.666 42.666-42.666h341.334c23.574 0 42.666 19.094 42.666 42.666v213.334c0 23.573-19.094 42.667-42.666 42.667h-170.667l-42.667 42.666z" />
<glyph unicode="&#xe659;" glyph-name="code2" d="M298.666 426.667h-170.667c-23.573 0-42.453-19.094-42.453-42.666l-0.213-341.334c0-23.574 18.88-42.666 42.454-42.666h256.214c23.574 0 42.666 19.094 42.666 42.666v256l-128 128zM341.334 85.333h-170.667v42.666h170.667v-42.666zM341.334 170.667h-170.667v42.666h170.667v-42.666zM277.334 277.333v117.333l117.334-117.333h-117.334z" />
<glyph unicode="&#xe65a;" glyph-name="image" d="M298.666 426.667h-170.667c-23.466 0-42.666-19.2-42.666-42.666v-341.334c0-23.466 19.2-42.666 42.666-42.666h256c23.466 0 42.666 19.2 42.666 42.666v256l-128 128zM128 85.333l64 96 42.666-74.666 64 106.666 85.334-128h-256zM277.334 277.333v117.333l117.334-117.333h-117.334z" />
<glyph unicode="&#xe65b;" glyph-name="unknown" d="M128 426.667c-23.573 0-42.453-19.094-42.453-42.666l-0.213-341.334c0-23.574 18.88-42.666 42.454-42.666h256.213c23.574 0 42.666 19.094 42.666 42.666v256l-128 128h-170.667zM277.334 277.333v117.333l117.334-117.333h-117.334z" />
<glyph unicode="&#xe65c;" glyph-name="antenna" d="M256 362.667c-82.454 0-149.333-66.88-149.333-149.334h42.667c0 58.88 47.786 106.666 106.666 106.666s106.666-47.786 106.666-106.666h42.666c0 82.454-66.88 149.334-149.333 149.334zM277.334 164.48c18.774 8.214 32 26.986 32 48.853 0 29.44-23.894 53.334-53.334 53.334s-53.334-23.893-53.334-53.334c0-21.866 13.226-40.64 32-48.853v-70.293l-72.853-72.853 30.186-30.187 64 64 64-64 30.187 30.187-72.853 72.853v70.293zM256 448c-129.6 0-234.667-105.067-234.667-234.667h42.666c0 106.026 85.974 192 192 192s192-85.974 192-192h42.666c0 129.6-105.067 234.667-234.667 234.667z" />
<glyph unicode="&#xe65d;" glyph-name="cloud-on" d="M412.906 255.253c-14.507 73.386-79.253 128.746-156.906 128.746-61.654 0-115.094-34.986-141.867-86.080-64.106-6.934-114.133-61.227-114.133-127.254 0-70.72 57.28-128 128-128h277.334c58.88 0 106.666 47.786 106.666 106.666 0 56.32-43.84 101.974-99.094 105.92zM213.333 106.667l-74.667 74.666 30.186 30.187 44.48-44.48 110.4 110.4 30.187-30.186-140.587-140.587z" />
<glyph unicode="&#xe65e;" glyph-name="cloud-off" d="M412.906 255.253c-14.507 73.386-79.253 128.746-156.906 128.746-31.466 0-60.8-9.28-85.546-24.96l31.147-31.147c16.32 8.427 34.774 13.44 54.4 13.44 64.853 0 117.334-52.48 117.334-117.334v-10.666h32c35.306 0 64-28.693 64-64 0-24.214-13.546-45.014-33.387-55.894l30.933-30.933c27.2 19.307 45.12 50.88 45.12 86.827 0 56.32-43.84 101.974-99.094 105.92zM64 356.8l58.666-58.454c-68.053-2.88-122.666-58.88-122.666-127.68 0-70.72 57.28-128 128-128h250.134l42.666-42.666 27.2 27.094-356.8 356.906-27.2-27.2zM164.8 256l170.666-170.667h-207.466c-47.147 0-85.334 38.187-85.334 85.334s38.187 85.334 85.334 85.334h36.8z" />
<glyph unicode="&#xe65f;" glyph-name="vpn-lock" d="M469.334 384v10.667c0 29.44-23.894 53.334-53.334 53.334s-53.334-23.894-53.334-53.334v-10.667c-11.84 0-21.334-9.6-21.334-21.333v-85.333c0-11.734 9.493-21.334 21.334-21.334h106.666c11.84 0 21.334 9.6 21.334 21.334v85.333c0 11.734-9.493 21.334-21.334 21.334zM452.267 384h-72.534v10.667c0 20.053 16.214 36.267 36.267 36.267s36.267-16.214 36.267-36.267v-10.667zM403.733 213.333c0.853-7.040 1.6-14.080 1.6-21.334 0-44.373-17.067-84.694-44.906-115.094-5.44 17.28-21.44 29.76-40.426 29.76h-21.334v64c0 11.733-9.6 21.334-21.334 21.334h-128v42.667h42.666c11.733 0 21.334 9.6 21.334 21.334v42.667h42.666c23.574 0 42.666 19.093 42.666 42.666v54.187c-20.16 6.4-41.707 9.813-64 9.813-117.867 0-213.333-95.466-213.333-213.334s95.466-213.333 213.333-213.333 213.334 95.466 213.334 213.333c0 7.253-0.426 14.293-1.067 21.334h-43.2zM213.333 22.827c-84.16 10.454-149.333 82.133-149.333 169.173 0 13.12 1.6 25.92 4.48 38.187l102.186-102.187v-21.334c0-23.574 19.094-42.666 42.666-42.666v-41.173z" />
<glyph unicode="&#xe660;" glyph-name="check11" d="M405.334 405.333h-298.666c-23.68 0-42.666-19.2-42.666-42.667v-298.666c0-23.466 18.986-42.666 42.666-42.666h298.666c23.68 0 42.666 19.2 42.666 42.666v298.666c0 23.466-18.986 42.667-42.666 42.667zM213.333 106.667l-106.666 106.666 30.080 30.080 76.587-76.374 161.92 161.92 30.080-30.293-192-192z" />
<glyph unicode="&#xe661;" glyph-name="check-o" d="M405.334 362.667v-298.666h-298.666v298.666h298.666zM405.334 405.333h-298.666c-23.466 0-42.666-19.2-42.666-42.667v-298.666c0-23.466 19.2-42.666 42.666-42.666h298.666c23.466 0 42.666 19.2 42.666 42.666v298.666c0 23.466-19.2 42.667-42.666 42.667z" />
<glyph unicode="&#xe662;" glyph-name="radio-on" d="M256 320c-58.88 0-106.666-47.786-106.666-106.667s47.786-106.666 106.666-106.666 106.666 47.786 106.666 106.666-47.786 106.666-106.666 106.666zM256 426.667c-117.76 0-213.333-95.573-213.333-213.334s95.573-213.333 213.333-213.333 213.333 95.573 213.333 213.334-95.573 213.333-213.333 213.333zM256 42.667c-94.293 0-170.667 76.373-170.667 170.667s76.374 170.667 170.667 170.667 170.667-76.374 170.667-170.667-76.374-170.667-170.667-170.667z" />
<glyph unicode="&#xe663;" glyph-name="radio-off" d="M256 426.667c-117.76 0-213.333-95.573-213.333-213.334s95.573-213.333 213.333-213.333 213.333 95.573 213.333 213.334-95.573 213.333-213.333 213.333zM256 42.667c-94.293 0-170.667 76.373-170.667 170.667s76.374 170.667 170.667 170.667 170.667-76.374 170.667-170.667-76.374-170.667-170.667-170.667z" />
<glyph unicode="&#xe664;" glyph-name="star11" d="M256 100.907l131.84-79.574-34.986 149.974 116.48 100.907-153.387 13.013-59.947 141.44-59.947-141.44-153.387-13.013 116.48-100.907-34.987-149.974z" />
<glyph unicode="&#xe665;" glyph-name="star-h" d="M256 426.667l-59.934-141.466-153.4-13 116.466-100.867-35-150 131.867 79.6z" />
<glyph unicode="&#xe666;" glyph-name="star-o" d="M469.334 272.213l-153.387 13.226-59.947 141.226-59.947-141.44-153.387-13.013 116.48-100.907-34.987-149.974 131.84 79.574 131.84-79.573-34.774 149.974 116.267 100.907zM256 140.8l-80.214-48.426 21.334 91.306-70.826 61.44 93.44 8.107 36.267 85.974 36.48-86.186 93.44-8.107-70.827-61.44 21.334-91.307-80.427 48.64z" />
<glyph unicode="&#xe667;" glyph-name="video-c" d="M170.667 362.667v-298.666l234.667 149.334z" />
<glyph unicode="&#xe668;" glyph-name="practice-c" d="M64 85.333h128v42.666h-128v-42.666zM64 341.333v-42.667h384v42.667h-384zM64 192h256v42.667h-256v-42.667z" />
<glyph unicode="&#xe669;" glyph-name="code-c" d="M166.4 324.267l-34.133 27.733-115.2-138.667 115.2-138.667 32 27.733-91.734 110.933 93.866 110.933zM192 42.667h42.666l85.334 341.334h-42.666l-85.334-341.334zM379.733 352l-32-27.733 93.867-110.934-93.866-110.933 32-27.733 115.2 138.666-115.2 138.667z" />
<glyph unicode="&#xe66a;" glyph-name="chapter11" d="M42.666 213.333c0-117.866 95.466-213.333 213.334-213.333s213.333 95.466 213.333 213.334-95.466 213.333-213.333 213.333-213.333-95.466-213.333-213.333zM341.334 192v-42.666h-170.667v42.666h170.667zM341.334 277.333v-42.667h-170.667v42.667h170.667z" />
<glyph unicode="&#xe66b;" glyph-name="add" d="M362.672 234.668h-85.338v85.338h-42.668v-85.338h-85.338v-42.669h85.338v-85.338h42.668v85.338h85.338z" />
<glyph unicode="&#xe66c;" glyph-name="remove" horiz-adv-x="491" d="M144.019 234.662h213.293v-42.659h-213.292v42.659z" />
<glyph unicode="&#xe66d;" glyph-name="empty1" d="M256 341.333c70.4 0 128-57.6 128-128s-57.6-128-128-128-128 57.6-128 128 57.6 128 128 128zM256 426.667c-117.334 0-213.333-96-213.333-213.334s96-213.333 213.333-213.333 213.333 96 213.333 213.334-96 213.333-213.333 213.333v0z" />
<glyph unicode="&#xe66e;" glyph-name="half11" d="M256 426.667c-117.334 0-213.333-96-213.333-213.334s96-213.333 213.333-213.333 213.333 96 213.333 213.334-96 213.333-213.333 213.333zM128 213.333c0 70.4 57.6 128 128 128s128-57.6 128-128h-256z" />
<glyph unicode="&#xe66f;" glyph-name="full1" d="M256 426.667c-117.334 0-213.333-96-213.333-213.334s96-213.333 213.333-213.333 213.333 96 213.333 213.334-96 213.333-213.333 213.333v0z" />
<glyph unicode="&#xe670;" glyph-name="refresh11" d="M256 384v64l-85.334-85.334 85.334-85.333v64c70.72 0 128-57.28 128-128 0-21.654-5.44-41.92-14.827-59.84l31.147-31.147c16.534 26.454 26.346 57.493 26.346 90.987 0 94.294-76.373 170.667-170.667 170.667zM256 85.333c-70.72 0-128 57.28-128 128 0 21.654 5.44 41.92 14.827 59.84l-31.147 31.147c-16.534-26.453-26.346-57.494-26.346-90.987 0-94.293 76.374-170.667 170.666-170.667v-64l85.334 85.334-85.334 85.334v-64z" />
<glyph unicode="&#xe671;" glyph-name="list-o" d="M341.334 298.667l85.334-85.334-85.334-85.334zM85.334 320h170.666v-42.666h-170.667v42.666zM128 234.667h128v-42.667h-128v42.667zM128 149.333h128v-42.666h-128v42.666z" />
<glyph unicode="&#xe672;" glyph-name="list-c" d="M426.666 298.667l-85.334-85.334 85.334-85.334zM85.334 320h170.666v-42.666h-170.667v42.666zM128 234.667h128v-42.667h-128v42.667zM128 149.333h128v-42.666h-128v42.666z" />
<glyph unicode="&#xe673;" glyph-name="arrow-r" d="M183.147 118.187l97.814 97.814-97.814 97.814 30.186 30.186 128-128-128-128z" />
<glyph unicode="&#xe674;" glyph-name="arrow-d" d="M158.186 294.187l97.814-97.814 97.813 97.814 30.187-30.187-128-128-128 128z" />
<glyph unicode="&#xe675;" glyph-name="close-s" d="M362.666 136.533l-29.866-29.866-76.8 76.8-76.8-76.8-29.867 29.866 76.8 76.8-76.8 76.8 29.867 29.867 76.8-76.8 76.8 76.8 29.866-29.867-76.8-76.8 76.8-76.8z" />
<glyph unicode="&#xe676;" glyph-name="close-h" d="M256 426.667c-117.867 0-213.333-95.466-213.333-213.334s95.466-213.333 213.333-213.333 213.333 95.466 213.333 213.334-95.466 213.333-213.333 213.333zM362.666 136.853l-30.187-30.187-76.48 76.48-76.48-76.48-30.186 30.187 76.48 76.48-76.48 76.48 30.186 30.186 76.48-76.48 76.48 76.48 30.187-30.187-76.48-76.48 76.48-76.48z" />
<glyph unicode="&#xe677;" glyph-name="unsave" d="M256 298.667c46.933 0 85.334-38.4 85.334-85.334s-38.4-85.334-85.334-85.334-85.334 38.4-85.334 85.334 38.4 85.334 85.334 85.334zM256 341.333c-70.4 0-128-57.6-128-128s57.6-128 128-128 128 57.6 128 128-57.6 128-128 128v0z" />
<glyph unicode="&#xe678;" glyph-name="loading1" d="M256 64c-83.2 0-149.333 66.133-149.333 149.334s66.133 149.334 149.333 149.334v64c-117.334 0-213.333-96-213.333-213.334s96-213.333 213.333-213.333 213.333 96 213.333 213.334h-64c0-83.2-66.134-149.334-149.333-149.334z" />
<glyph unicode="&#xe679;" glyph-name="course" d="M448 384h-384c-23.466 0-42.666-19.2-42.666-42.666v-245.334c0-23.466 19.2-42.666 42.666-42.666h384c23.466 0 42.666 19.2 42.666 42.666v245.334c0 23.466-19.2 42.666-42.666 42.666zM106.666 138.667v149.334l106.666-74.667-106.666-74.666zM362.666 106.667h-85.334c-11.733 0-21.334 9.6-21.334 21.334s9.6 21.334 21.334 21.334h85.334c11.733 0 21.334-9.6 21.334-21.334s-9.6-21.334-21.334-21.334zM405.334 192h-128c-11.733 0-21.334 9.6-21.334 21.334s9.6 21.334 21.334 21.334h128c11.733 0 21.334-9.6 21.334-21.334s-9.6-21.334-21.334-21.334zM405.334 277.333h-128c-11.733 0-21.334 9.6-21.334 21.333s9.6 21.334 21.334 21.334h128c11.733 0 21.334-9.6 21.334-21.334s-9.6-21.333-21.334-21.333z" />
<glyph unicode="&#xe67a;" glyph-name="project" d="M483.2 221.867c-19.2 20.267-42.666 32-70.4 33.067-7.466 37.334-25.6 68.267-55.466 92.8s-62.933 36.266-101.334 36.266c-29.867 0-57.6-8.534-83.2-24.534s-44.8-37.333-58.666-62.933c-32-3.2-58.666-17.067-81.067-41.6s-33.066-52.267-33.066-84.267c0-35.2 12.8-65.067 37.334-90.666s55.467-37.334 90.667-37.334h277.333c29.866 0 54.4 10.666 75.733 32s32 45.866 32 75.733c-1.067 26.666-10.666 51.2-29.866 71.466zM362.666 213.333c0-11.733-9.6-21.334-21.334-21.334h-42.666c-11.733 0-21.334 9.6-21.334 21.334s9.6 21.334 21.334 21.334h42.666c11.733 0 21.334-9.6 21.334-21.334zM234.667 320h42.667c11.733 0 21.334-9.6 21.334-21.334s-9.6-21.333-21.334-21.333h-42.666c-11.733 0-21.334 9.6-21.334 21.333s9.6 21.334 21.334 21.334zM106.666 213.333c0 11.734 9.6 21.334 21.334 21.334h85.334c11.733 0 21.334-9.6 21.334-21.334s-9.6-21.334-21.334-21.334h-85.334c-11.733 0-21.334 9.6-21.334 21.334zM405.334 106.667h-170.667c-11.733 0-21.333 9.6-21.333 21.334s9.6 21.334 21.334 21.334h170.667c11.733 0 21.334-9.6 21.334-21.334s-9.6-21.334-21.334-21.334z" />
<glyph unicode="&#xe67b;" glyph-name="student" d="M256 42.667c93.866 0 170.667 76.8 170.667 170.667 0 17.066-3.2 33.066-7.466 48-13.866-4.267-29.866-5.333-46.933-5.333-72.534 0-135.466 35.2-173.867 89.6-21.333-51.2-61.867-92.8-112-115.2-1.067-5.333-1.067-10.667-1.067-17.066 0-93.867 76.8-170.667 170.666-170.667zM256 426.667c118.4 0 213.333-94.933 213.333-213.334s-94.933-213.333-213.333-213.333c-118.4 0-213.333 94.933-213.333 213.334s94.933 213.333 213.333 213.333zM320 218.667c14.933 0 26.666-10.667 26.666-25.6s-11.733-26.666-26.666-26.666-26.666 11.733-26.666 26.666 11.733 25.6 26.666 25.6zM192 218.667c14.934 0 26.666-10.667 26.666-25.6s-11.733-26.666-26.666-26.666-26.666 11.733-26.666 26.666 11.733 25.6 26.666 25.6z" />
<glyph unicode="&#xe67c;" glyph-name="evaluation" d="M341.334 362.667v-169.6h-228.267l-11.733-8.534-16-12.8v190.934h256zM361.6 405.333h-297.6c-11.733 0-21.334-8.534-21.334-21.334v-298.666l85.334 65.067h233.6c11.733 0 22.4 8.534 22.4 21.334v212.267c0 12.8-9.6 21.333-22.4 21.333v0zM448 320c11.733 0 21.334-8.534 21.334-21.334v-288l-85.334 53.334h-234.667c-11.733 0-21.334 8.534-21.334 21.334v21.334h298.666v213.334h21.334z" />
<glyph unicode="&#xe67d;" glyph-name="top1" d="M42.666 426.667v-426.666h426.666v426.666h-426.666zM217.6 373.333h196.266v-32h-87.466l-8.534-38.4h81.067v-166.4h-34.134v132.267h-108.8v-136.534h-34.133v170.667h59.734l8.534 38.4h-72.534v32zM177.066 106.667c2.133-27.733-12.8-40.534-38.4-40.534-8.534-2.134-19.2-2.134-32-2.134-2.133 14.933-4.266 27.733-6.4 34.133 6.4-2.134 14.933-2.134 27.733-2.134 12.8-2.134 17.066 6.4 17.066 19.2v217.6h-49.066v34.134h113.066v-34.134h-32v-226.134zM392.534 57.6c-14.933 12.8-42.666 36.267-83.2 66.133-12.8-27.733-46.933-49.067-98.133-70.4-4.267 10.666-12.8 23.466-19.2 34.134 42.667 12.8 70.4 29.866 81.066 44.8 12.8 14.933 19.2 40.534 19.2 76.8l2.134 40.534h34.133l-2.134-40.534c0-19.2-2.134-36.267-6.4-51.2 8.534-6.4 23.466-17.067 42.666-32 25.6-19.2 40.534-32 51.2-38.4l-21.334-29.866z" />
<glyph unicode="&#xe67e;" glyph-name="back" d="M426.666 234.667h-259.627l119.147 119.147-30.186 30.186-170.667-170.666 170.667-170.667 30.186 30.187-119.147 119.147h259.627v42.667z" />
<glyph unicode="&#xe67f;" glyph-name="list" d="M64 85.333h384v42.666h-384v-42.666zM64 192h384v42.667h-384v-42.667zM64 341.333v-42.667h384v42.667h-384z" />
<glyph unicode="&#xe680;" glyph-name="question" d="M405.334 426.667h-298.666c-23.573 0-42.666-19.094-42.666-42.666v-298.667c0-23.574 19.093-42.666 42.666-42.666h85.334l64-64 64 64h85.334c23.574 0 42.666 19.094 42.666 42.666v298.666c0 23.574-19.094 42.667-42.666 42.667zM277.334 85.333h-42.666v42.666h42.666v-42.666zM321.387 250.56l-19.094-19.626c-15.36-15.36-24.96-28.267-24.96-60.267h-42.666v10.666c0 23.574 9.6 44.907 24.96 60.374l26.56 26.88c7.68 7.68 12.48 18.346 12.48 30.080 0 23.574-19.094 42.667-42.666 42.667s-42.666-19.094-42.666-42.667h-42.666c0 47.147 38.186 85.334 85.334 85.334s85.334-38.186 85.334-85.334c0-18.774-7.574-35.733-19.947-48.106z" />
<glyph unicode="&#xe681;" glyph-name="pen" d="M64 101.333v-80h80l236.053 236.054-80 80-236.054-236.054zM441.707 319.040c8.32 8.32 8.32 21.866 0 30.186l-49.813 49.814c-8.32 8.32-21.866 8.32-30.187 0l-39.040-39.040 80-80 39.040 39.040z" />
<glyph unicode="&#xe682;" glyph-name="message1" d="M426.666 426.667h-341.334c-23.573 0-42.453-19.094-42.453-42.666l-0.214-384 85.334 85.334h298.666c23.574 0 42.666 19.094 42.666 42.666v256c0 23.573-19.094 42.666-42.666 42.666zM192 234.667h-42.666v42.667h42.666v-42.667zM277.334 234.667h-42.666v42.667h42.666v-42.667zM362.666 234.667h-42.666v42.667h42.666v-42.667z" />
<glyph unicode="&#xe683;" glyph-name="clock1" d="M255.893 426.667c-117.867 0-213.226-95.466-213.226-213.334s95.36-213.333 213.226-213.333c117.867 0 213.44 95.466 213.44 213.334s-95.573 213.333-213.44 213.333zM256 42.667c-94.293 0-170.667 76.373-170.667 170.667s76.374 170.667 170.667 170.667 170.667-76.374 170.667-170.667-76.374-170.667-170.667-170.667zM266.666 320h-32v-128l111.894-67.2 16.106 26.24-96 56.96z" />
<glyph unicode="&#xe684;" glyph-name="replay1" d="M256 362.667v85.334l-106.666-106.666 106.666-106.667v85.334c70.72 0 128-57.28 128-128s-57.28-128-128-128-128 57.28-128 128h-42.666c0-94.293 76.373-170.667 170.666-170.667s170.667 76.374 170.667 170.667-76.374 170.667-170.667 170.667z" />
<glyph unicode="&#xe685;" glyph-name="weixin-y" d="M294.4 213.333c-6.4 0-12.8-6.4-12.8-12.8s6.4-12.8 12.8-12.8c10.666 0 17.067 6.4 17.067 12.8s-6.4 12.8-17.067 12.8zM155.733 311.467c-10.666 0-21.334-6.4-21.334-17.066s10.666-17.067 21.334-17.067c10.666 0 17.066 6.4 17.066 17.067s-6.4 17.066-17.066 17.066zM251.733 277.333c10.666 0 17.067 6.4 17.067 17.066s-6.4 17.066-17.066 17.066c-10.667 0-21.333-6.4-21.333-17.066s10.666-17.066 21.334-17.066zM369.067 213.333c-6.4 0-12.8-6.4-12.8-12.8s6.4-12.8 12.8-12.8c10.666 0 17.067 6.4 17.067 12.8s-6.4 12.8-17.067 12.8zM256 469.333c-140.8 0-256-115.2-256-256s115.2-256 256-256 256 115.2 256 256c0 140.8-115.2 256-256 256zM200.534 138.667c-17.066 0-29.867 4.267-46.934 6.4l-46.934-23.466 12.8 40.534c-34.133 23.466-55.467 55.466-55.467 91.734 0 64 61.866 115.2 136.534 115.2 66.133 0 125.867-40.533 136.534-96-4.267 0-8.534 0-12.8 0-64 0-115.2-49.066-115.2-106.666 0-10.666 2.133-19.2 4.267-27.733-4.267 0-8.534 0-12.8 0zM401.067 91.733l10.666-34.134-36.267 21.334c-12.8-4.267-27.733-6.4-40.534-6.4-64 0-115.2 44.8-115.2 98.133s51.2 98.134 115.2 98.134c61.866 0 115.2-44.8 115.2-98.134-2.134-32-23.466-59.733-49.067-78.933z" />
<glyph unicode="&#xe686;" glyph-name="qq-y" d="M256 469.333c-140.8 0-256-115.2-256-256s115.2-256 256-256 256 115.2 256 256c0 140.8-115.2 256-256 256zM401.067 115.2c0 0-6.4-6.4-23.466 25.6-8.534-19.2-19.2-36.267-36.267-49.067 19.2-4.267 32-12.8 32-21.334 0-14.933-23.466-27.733-57.6-27.733-32 0-55.466 21.334-59.733 21.334-2.133 0-2.133 0-4.267 0-6.4-21.334-27.733-21.334-55.466-21.334-34.133 0-61.867 10.666-64 25.6 0 2.134 2.133 4.267 4.267 8.534 4.267 8.534 17.066 14.933 34.133 17.067-14.934 12.8-27.733 29.866-34.133 49.067-14.933-32-21.334-25.6-21.334-25.6-25.6 38.4 8.534 85.334 17.067 98.134 0 0 19.2 21.333 19.2 38.4-2.133 2.133-2.133 2.133-2.133 2.133 0 91.733 55.466 128 110.934 128 61.867 0 119.466-38.4 113.067-132.267 0 0 14.933-27.733 12.8-38.4 0 0 2.134 2.134 2.134 2.134s0 0-2.134-2.134c8.534-12.8 40.534-59.733 14.933-98.134z" />
<glyph unicode="&#xe687;" glyph-name="weibo-y" d="M226.133 166.4c-4.267 2.134-8.534 0-10.667-4.267s0-8.534 2.133-8.534c4.267-2.134 8.534 0 10.667 4.267 2.133 2.134 2.133 6.4-2.133 8.534zM200.534 155.733c-10.666 4.267-23.466 0-27.733-10.666-6.4-8.534-4.267-21.334 6.4-25.6s23.466 0 29.867 8.534c6.4 12.8 2.133 23.466-8.534 27.733zM211.2 232.533c-64-6.4-110.933-44.8-106.666-87.467s59.734-70.4 121.6-64c64 6.4 110.933 44.8 106.666 87.466-4.267 40.534-59.733 70.4-121.6 64zM266.666 132.267c-12.8-29.866-51.2-44.8-81.067-34.134s-42.666 40.534-29.867 68.267c12.8 25.6 46.934 42.666 76.8 34.133s46.933-38.4 34.133-68.267zM256 469.333c-140.8 0-256-115.2-256-256s115.2-256 256-256c140.8 0 256 115.2 256 256s-115.2 256-256 256zM226.133 57.6c-78.934 0-162.133 38.4-162.133 102.4 0 34.134 21.334 72.534 57.6 108.8 49.066 49.067 104.534 70.4 125.867 49.067 8.534-8.534 10.666-25.6 4.267-44.8-2.133-10.667 8.534-4.267 8.534-4.267 38.4 17.067 72.534 17.067 85.334 0 6.4-8.534 6.4-23.466 0-38.4-2.134-6.4 0-8.534 6.4-10.667 21.334-6.4 46.933-23.466 46.933-53.334 0-46.933-70.4-108.8-172.8-108.8zM369.067 260.267c2.134 8.534 0 17.067-4.267 23.466-6.4 6.4-14.933 8.534-23.466 6.4v0c-6.4-2.133-12.8 2.134-14.933 10.667-2.134 6.4 2.134 12.8 10.666 14.933 14.933 4.267 34.134-2.134 46.933-14.933s14.933-32 10.666-49.067c-2.134-6.4-8.534-10.667-14.933-8.534-8.534 2.133-12.8 10.667-10.666 17.067v0zM443.733 236.8c-2.134-8.534-10.666-12.8-19.2-8.534-8.534 2.133-12.8 10.666-8.534 19.2v0c8.534 23.466 2.134 51.2-14.933 70.4s-44.8 27.733-68.267 21.334c-8.534-2.134-14.933 4.266-17.067 10.666-2.134 8.534 4.267 14.934 10.666 17.067v0c34.134 6.4 72.534-4.266 96-32 25.6-27.733 32-66.133 21.334-98.133 0 0 0 0 0 0z" />
<glyph unicode="&#xe688;" glyph-name="show-pw1" d="M448 149.333c-12.8 0-21.334 8.534-21.334 21.334 0 93.867-76.8 170.667-170.667 170.667s-170.667-76.8-170.667-170.667c0-12.8-8.534-21.334-21.334-21.334s-21.334 8.534-21.334 21.334c0 117.334 96 213.334 213.333 213.334s213.334-96 213.334-213.334c0-12.8-8.534-21.334-21.334-21.334zM256 213.333c23.466 0 42.666-19.2 42.666-42.666s-19.2-42.666-42.666-42.666-42.666 19.2-42.666 42.666 19.2 42.666 42.666 42.666zM256 256c-46.934 0-85.334-38.4-85.334-85.334s38.4-85.334 85.334-85.334 85.334 38.4 85.334 85.334-38.4 85.334-85.334 85.334v0z" />
<glyph unicode="&#xe7f0;" glyph-name="follow_user" d="M362.666 64v-42.666c0-12.8-8.534-21.334-21.334-21.334s-21.334 8.534-21.334 21.334v42.666c0 36.267-27.733 64-64 64h-149.333c-36.267 0-64-27.733-64-64v-42.666c0-12.8-8.534-21.334-21.334-21.334s-21.334 8.534-21.334 21.334v42.666c0 59.733 46.934 106.666 106.666 106.666h149.334c59.733 0 106.666-46.933 106.666-106.666zM74.666 320c0 59.733 46.933 106.666 106.666 106.666s106.667-46.933 106.667-106.666-46.934-106.667-106.666-106.667-106.666 46.934-106.666 106.666zM117.334 320c0-36.267 27.734-64 64-64s64 27.733 64 64-27.733 64-64 64-64-27.733-64-64zM490.666 256h-42.666v42.666c0 12.8-8.534 21.334-21.334 21.334s-21.334-8.534-21.334-21.334v-42.666h-42.666c-12.8 0-21.334-8.534-21.334-21.334s8.534-21.334 21.334-21.334h42.666v-42.666c0-12.8 8.534-21.334 21.334-21.334s21.334 8.534 21.334 21.334v42.666h42.666c12.8 0 21.334 8.534 21.334 21.334s-8.534 21.334-21.334 21.334z" />
<glyph unicode="&#xe7f4;" glyph-name="notifications" d="M384 128.333l43-43v-21h-342v21l43 43v106c0 66 35 120 96 135v15c0 18 14 32 32 32s32-14 32-32v-15c61-15 96-70 96-135v-106zM256 0.333c-24 0-43 19-43 42h86c0-23-20-42-43-42z" />
<glyph unicode="&#xe800;" glyph-name="up" d="M213.333 277.333v85.333l-149.333-149.334 149.333-149.333v87.466c106.667 0 181.333-34.134 234.667-108.8-21.334 106.666-85.334 213.334-234.667 234.667z" />
<glyph unicode="&#xe80d;" glyph-name="share1" d="M384-21.333h-256c-36.267 0-64 27.733-64 64v170.667c0 12.8 8.534 21.333 21.334 21.333s21.334-8.534 21.334-21.334v-170.667c0-12.8 8.534-21.334 21.333-21.334h256c12.8 0 21.334 8.534 21.334 21.334v170.667c0 12.8 8.534 21.334 21.334 21.334s21.334-8.534 21.334-21.334v-170.667c0-36.267-27.733-64-64-64zM341.334 320c-6.4 0-10.666 2.133-14.933 6.4l-70.4 70.4-70.4-70.4c-8.534-8.534-21.333-8.534-29.867 0s-8.534 21.333 0 29.866l85.334 85.334c8.534 8.534 21.334 8.534 29.866 0l85.334-85.334c8.534-8.534 8.534-21.333 0-29.866-4.267-4.267-8.534-6.4-14.933-6.4zM256 128c-12.8 0-21.334 8.534-21.334 21.334v277.334c0 12.8 8.534 21.334 21.334 21.334s21.334-8.534 21.334-21.334v-277.334c0-12.8-8.534-21.334-21.334-21.334z" />
<glyph unicode="&#xe834;" glyph-name="checkbox" d="M256 149.333c-6.4 0-10.666 2.134-14.934 6.4l-64 64c-8.534 8.534-8.534 21.334 0 29.867s21.333 8.534 29.867 0l49.066-49.067 198.4 198.4c8.534 8.534 21.334 8.534 29.866 0s8.534-21.334 0-29.867l-213.333-213.334c-4.267-4.267-8.534-6.4-14.934-6.4zM405.334-0h-298.666c-36.267 0-64 27.733-64 64v298.667c0 36.266 27.733 64 64 64h234.667c12.8 0 21.334-8.534 21.334-21.334s-8.534-21.333-21.334-21.333h-234.667c-12.8 0-21.334-8.534-21.334-21.334v-298.666c0-12.8 8.534-21.334 21.334-21.334h298.667c12.8 0 21.334 8.534 21.334 21.334v149.334c0 12.8 8.534 21.334 21.334 21.334s21.334-8.534 21.334-21.334v-149.333c0-36.267-27.733-64-64-64z" />
<glyph unicode="&#xe835;" glyph-name="checkbox_onk" d="M405.334-0h-298.666c-36.267 0-64 27.733-64 64v298.667c0 36.266 27.733 64 64 64h298.666c36.267 0 64-27.733 64-64v-298.667c0-36.267-27.733-64-64-64zM106.666 384c-12.8 0-21.334-8.534-21.334-21.333v-298.666c0-12.8 8.534-21.334 21.334-21.334h298.666c12.8 0 21.334 8.534 21.334 21.334v298.666c0 12.8-8.534 21.334-21.334 21.334h-298.666z" />
<glyph unicode="&#xe836;" glyph-name="radiobxo_o" d="M256-21.333c-130.133 0-234.667 104.534-234.667 234.667s104.534 234.666 234.667 234.666 234.667-104.533 234.667-234.666-104.534-234.667-234.667-234.667zM256 405.333c-106.666 0-192-85.334-192-192s85.334-192 192-192c106.666 0 192 85.334 192 192s-85.334 192-192 192z" />
<glyph unicode="&#xe837;" glyph-name="radiobox" d="M256-21.333c-130.133 0-234.667 104.534-234.667 234.667s104.534 234.666 234.667 234.666 234.667-104.533 234.667-234.666-104.534-234.667-234.667-234.667zM256 405.333c-106.666 0-192-85.334-192-192s85.334-192 192-192c106.666 0 192 85.334 192 192s-85.334 192-192 192zM341.334 213.333c0-47.129-38.205-85.334-85.334-85.334s-85.334 38.205-85.334 85.334c0 47.129 38.205 85.334 85.334 85.334s85.334-38.205 85.334-85.334z" />
</font>
</defs>
</svg>
